<svg xmlns="http://www.w3.org/2000/svg" xmlns:xlink="http://www.w3.org/1999/xlink" id="a" viewBox="0 0 1080 1080" width="1080px" height="1080px"><defs><style>.d { filter: url("#b"); }
.e { fill: rgb(242, 242, 242); fill-rule: evenodd; }
</style><filter id="b" filterUnits="userSpaceOnUse"><feOffset dx="2.83" dy="2.83"/><feGaussianBlur result="c" stdDeviation="11.34"/><feFlood flood-color="#000000" flood-opacity=".47"/><feComposite in2="c" operator="in"/><feComposite in="SourceGraphic"/></filter></defs><g class="d"><path class="e" d="M120.87,30.01h0V876.82c.1,.27,.1,.64,.12,.95,1.61,21.73,4.11,43.23,19.13,61.49,14.71,17.97,40.96,31.38,89.42,36.11l.89,.11c40.57,3.59,77.46,5.45,110.66,7.17,51.8,2.67,94.48,4.92,125.67,12.04,22.1,5.2,38.22,12.97,48.73,22.58,10.2,9.38,14.96,20.49,14.44,32.24-.25,5.21,3.8,9.67,9.01,9.75,.41,.1,.76,.1,1.2,0h3.29v.1h.76l2.25,.02c5.17,.1,9.48-4.01,9.61-9.19v-1.03c.14-12.46,4.07-22.52,12.5-30.67,9.15-9.01,23.77-16.07,44.27-21.53v.02l.54-.12c34.14-9.09,83.16-11.53,143.06-14.56,31.96-1.53,67.05-3.22,103.66-6.14,.72-.04,1.22-.16,1.88-.33,37.51-6.8,61.41-17.08,76.16-30.72,15.89-14.71,21.21-32.66,21.03-53.85V30.01c0-5.2-4.13-9.4-9.33-9.4H130.31c-5.2,0-9.44,4.19-9.44,9.4m33.73,897.29h0c-11.36-13.84-13.51-32.18-14.87-50.88V39.48H940.33V891.26h.02c.16,16.11-3.64,29.42-14.96,39.99-12.25,11.22-33.19,19.95-66.99,26.17-37.53,2.91-71.72,4.61-102.91,6.16-61,3.04-111.05,5.54-146.91,14.96l-.62,.18,2.44,9.11-2.44-9.11c-23.65,6.32-41.02,14.89-52.63,26.28-5.37,5.25-9.53,11.11-12.48,17.45-3.41-6.77-8.3-13.24-14.77-19.13-12.72-11.69-31.73-21.05-57.11-26.94-32.72-7.54-76.24-9.81-128.89-12.56-33.24-1.69-70.21-3.59-109.95-7.12l-.76-.02c-42.76-4.15-65.05-15.04-76.76-29.37ZM684.38,74.49h0c-81.45,103.72-167.28,134.97-218.46,192.6,.27,10.7-.39,21.13-1.53,31.48l1.26-1.94c25.96-39.74,70.44-66.02,118.13-94.17,20.22-11.94,40.9-24.21,61-37.95,2.54-6.67,45.46-46.17,55.84-61.7,2.42-6.38,5.99-11.84,5.99-18.14,0-9.11-7.19-17.62-13.74-17.62-3.24,0-6.46,2.11-8.49,7.43Zm53.75,.66h.27c.7,.02,1.22,.62,1.2,1.3-.75,12.37-4.3,26.48-10.54,39.29-5.58,11.4-13.34,21.89-23.07,29.54l-1.72,1.28c-.02,.41-.17,.83-.62,1.14-11.15,8.96-22.39,22.35-18.32,35.3,3.08,9.96,13.03,9.23,21.75,8.53,7.58-.64,14.29-1.32,14.44,5.27v.23c.18,.1,.29,.31,.29,.49,.04,.37-.1,.76-.43,.97-2.64,14.32-42.22,37.66-48.23,49.58-10.82,21.42,16.69,53.52,54.57,19.15,15.12-13.76,26.75,11.45,3.88,24.15-17.74,8.26-47.47,18.98-55.96,37.53-8.22,17.89,6.96,32.08,30.05,30.04,40.92-3.53,9.42,31.03-9.3,31.93-13.26,.75-29.43,4.19-31.33,17.91-.68,5.33-.35,9.42,.56,12.58,.39,.31,.52,.79,.43,1.2,4.79,12.08,20.32,10.7,24.52,22.06,4.63,12.54-14.19,12.27-34.41,12-22-.37-45.73-.68-42.74,15.6,2.13,11.83,11.26,14.37,15.99,21.11,12.79,18.76-15.99,15.47-28.96,8.51-45.48-24.58-61.1,8.72-35.86,29,33.24,26.58-2.75,28.55-32.95-3.64-12.77-13.57-19.07-12.43-22.52-11.3-1.9,.56-2.91,1.14-3.64-.6h-.08c-3.18-8.14-5.21-14.11-6.18-17.62-10.74,.85-22.7,.02-34.7-3.45-15.74,16.24-16.13,29.99-16.54,40.82,0,1.06,0,.56-.04,1.63,2.29-.6,1.2-1.01,2.01-2.25,11.59-1.59,20.14,3.06,38.27,16.92,8.14,9.11,26.75,16.82,44.87,4.44-5-3.59-19.01-9.54-21.48-18.3-3.16-11.17,2.85-17.37,34.72,10.64,9.27,5.83,40.86,21.88,50.05,9.63,13.71-18.47-31.05-35.11-26.67-46.58,4.52-11.63,22.39-6.14,41.23-.62,23.94,7.04,49.31,14.01,51.33-13.7,.27-4.54-24.39,3.12-29.89-18.26-2.37-18.36,19.89-17.23,40.34-15.99,9.4,.48,18.36,1.1,24.52-.25,19.6-4.32,36.38-35.05,17.49-30.28-3.65,.93-7,1.42-11.75,.48-40.45-17.06-16.11-32.51,18.03-44.25,9.75-3.97,17.41-7.21,19.81-15.8,10.55-37.12,12.46-48.83-23.2-29.33-21.56,8.43-31.93,3.2-23.46-19.04,2.99-7.99,22.68-16.11,44.43-25.16,5.7-2.33,11.48-9.61,12.89-13.84,15.06-44.85-10.7-58.5-32.64-23.53-19.89,14.81-35.2,5.22-22.56-14.77,13.57-21.94,34.19-26.5,44.53-44.78,2.79-13.82,4.77-24.58,2.33-30.86-2.36-6.05-10.82-6.84-15.39-3.82-3.78,2.69-2.25,7.62-12.66,11.67-20.74,1.82-13.8-12.48-8.76-21.03,19.99-20.7,34.99-34.29,46.48-51.76,2.4-6.38,5.89-11.88,5.89-18.09-.02-9.19-7-17.66-13.49-17.66-2.64,0-5.14,1.38-7.11,4.67Zm-1.26,2.71h0c-71.1,112.51-211.38,136.52-265.39,220.61-26.23,40.74-36.33,82.71,11.36,101.65,23.49,31.19,9.07,47.82-15.9,60.34-52.84,15.7-60.03,43.59-54.12,64.04,5.1,17.45,15.1,24.44,20.97,29.62,10.24,9.15,13.09,4.36,13.47-9.98-1.24-1.49-1.88-3.18-1.96-5.02v-.25c.12-1.28,.21-2.6,.25-3.9,.39-12.97,1.01-29.93,25.65-50.13,1.2-.97,2.33-1.88,3.45-2.73,17.87-14.54,34.5-31.67,33.28-57.01-.81-17.41-.5-33.59,4.07-48.54,4.63-15.02,13.53-28.9,29.95-41.81,16.67-13.14,30.9-25.8,44.39-42.02,14.13-17.04,28.38-38.67,45.09-70.15,8.16-15.41,17.87-28.59,29.89-41.27,10.58-11.26,22.97-22.08,37.66-33.73,.89-.75,1.77-1.49,2.68-2.25,.14-.12,.39-.25,.64-.29l2.11-1.74c9.54-7.29,16.98-17.56,22.35-28.59,5.93-12.15,9.44-25.37,10.27-37.16l-.15,.31Zm-341.51,24.6h0c-4.42-3.06-7.39-.39-10.06,3.08,6.73,5.33,5.91,8.67,2.85,10.04-4.63,1.96-7.33-1.24-7.31-6.76-5.93,.48-8.76,3.33-8.05,8.53-9.92,2.64-8.78,8.86-6.05,15.57-12.56,5.16-2.64,17.7,.68,18.51,3.3-6.98,8.66-12.81,16.36-6.36,3.39,2.87,3.92,6.57,2.31,10.12l15.14,.14c.17-.14,.31-.17,.45-.27,.17,.1,.35,.12,.5,.27l15.41,.17c-.64-1.51-1.03-3.08-1.18-4.65-.68-7.35,2.52-10.2,9.48-8.8,7.6,1.55,10.1,4.92,11.92,8.8,5.52-5,6.05-10.8,1.49-17.41,2.71-6.53,3.62-12.41-7.12-13.32,.62-5.78-2.13-9.13-8.2-10.1-1.92,6.34-5.04,8.59-8.24,5.56-3.33-3.41-4.32-7.25,4.46-8.51-.91-5.39-4.46-6.71-10.39-3.99,1.01-4.87-2.02-8.59-6.88-11.84-5.45,2.15-7.97,5.83-7.56,11.22Zm-3.64,23.45h0c0-4.96,3.64-10.64,8.86-11.61-1.45-2.6-3.12-5.48-3.78-8.33-2.5-10,14.13-9.67,11.59,.45-.75,2.95-2.62,5.48-4.24,7.95,5.02,1.2,8.74,6.65,8.74,11.53,0,5.5-4.36,11.94-10.51,11.94s-10.66-6.38-10.66-11.94Zm24.97,7.97h0l-2.85-.79,2.01-2.09c2.27-2.27,4.34-4.77,7.31-6.24,2.64-1.39,5.72-1.3,7.78,.97,3.6,3.92,1.3,9.75-4.57,9.77h-.18c-3.16,0-6.45-.87-9.5-1.63Zm-38.36,1.63h0c-2.52,0-4.92-1.14-5.76-3.55-1.98-5.08,3.49-10.1,9.13-7.19,2.89,1.46,5.04,3.96,7.23,6.24l2,2.09-2.79,.79c-3.1,.76-6.42,1.63-9.58,1.63h-.23Zm119.15-16.9h0c-3.37-2.87-6.71-2.87-10.1,0,2.6,4.36,2.89,8.03,0,9.38-4.55,2.28-5.7-2.08-4.71-8.47-5.45-1.92-8.14,.21-7.81,6.38-10.08-2.58-12.1,2.73-12.85,9.15-11.77,5.27-9.03,10.6-9.19,15.8,5.54-6.03,12.31-5,13.84,.29-.14,1.77-.47,3.39-.76,4.77l12.15,.1,.04-.04-7.31,23.45h2.11v2h-1.09c-45.16,0-93.1-1.65-137.72-.14v9.38l7.44-4.67,7.31,4.52-.23,.14,.23,.09-7.31,4.5-7.44-4.59v9.26h100.47c12.58-4.71,26.73-4.11,37.84-14.15v-2.05h2.27v-6.07h-1.49l7.35-22.55,1.24-3.82c1.24,.37,3.45-.17,5.04-2.21,1.69-2,2.6-5.27,1.47-6.73-.04-.19-.27-.29-.43-.45,6.8-10.87,15.06-20.84,23.77-30.32-5.72,.6-10.95,2.44-14.13,7.06Zm-17.97,23.9h0c-3.16-.6-6.49-1.01-9.42-2.56-2.58-1.51-4.17-4.09-3.28-6.96,1.49-5.08,7.83-6.26,10.95-1.53,1.78,2.58,2.85,5.87,3.76,8.86l.89,2.73-2.89-.54Zm-26.75,43.26h0l-4.21,2.52-5.29-2.52h9.5Zm-28.76,0h0l-5.08,2.46-6.4-2.46h11.48Zm-34.72,0h0l-6.26,2.37-5.04-2.37h11.3Zm-30.47,0h0l-5.35,2.52-4.13-2.52h9.48Zm29.79,4.89h0l12.31-4.83,12.27,4.83-12.27,4.77-12.31-4.77Zm35.78,.23h0l.62-.23-.62-.29,9.23-4.44,9.83,4.73-9.83,4.71-9.23-4.48Zm-65.81-.23h0l9.81-4.73,9.19,4.4-.84,.33,.84,.31-9.19,4.4-9.81-4.71Zm-5.1,2.29h0l5.49,2.64h-9.77l4.27-2.64Zm65.46,.12h0l5.27,2.52h-11.88l6.61-2.52Zm-35.9,0h0l6.42,2.52h-11.63l5.21-2.52Zm-66.89-51.85h0c-1.03,1.32-.95,4.09,.31,6.57,1.26,2.46,3.18,3.88,4.65,3.47l1.22,3.43,15.89,.12c-.1-.37-.21-.83-.35-1.28-.13-11.48,9.48-7.02,13.49-1.51,2.36-7.12,.97-13.16-8.49-16.98,.7-7.33-3.33-10.54-11.88-9.81-2.52-7.19-6.51-6.55-10.7-4.83,2.54,4.83,1.49,8.4-2.52,7.31-2.77-.77-3.88-3.78-.27-7.93-3.34-2.67-6.51-4.65-9.79-.91-3.41-4.71-9.21-6.38-15.97-6.98,11.65,10.35,19.15,20,24.42,29.33Zm6.94-.91h0c.93-2.99,1.98-6.28,3.76-8.86,1.36-2.07,3.61-3.47,6.26-2.89,5.52,1.12,6.92,8.31,1.28,11.38-2.81,1.55-6.07,1.96-9.31,2.56l-2.87,.54,.89-2.73Zm74.96-14.46h0c0,2.38,1.47,5.31,4.28,5.31s4.23-2.93,4.23-5.31-1.53-5.27-4.23-5.27-4.28,2.91-4.28,5.27Zm-68.06,52.72h0l-2.15-.93v6.07h1.26v14.15h-1.26v5.97h10.78l3.08,9.09c25.39-4.67,46.62-3.45,71.95-1.8l15.66-7.5h-90.66l-.37-1.59h-8.66v-2.5h1.26v-17.62h-1.26v-2.5h2.52l-7.62-23.9c2.85,1.18,5.33,2.79,5.7,6.69,3.02-.25,6.9-2.62,6.77,5.41,4.69-.17,6.65,2.87,6.78,8.08-3.06-5.56-6.53-2.25-6.96,1.88h57.34c-1.32-4.03-3.08-6.9-7.67-1.35-1.9-3.74-1.5-8.61,4.42-6.96-1.67-3.7,.17-7.71,6.57-6.3-1.9-2.95,.77-5.76,3.76-7.64l-15.14-.14c-2.64,5.97-11.38,11.69-22.74,12.66-13.67,1.24-22.12-3.64-25.14-13.03l-15.89-.12,7.66,23.88Zm8.22-23.75h0l47.88,.37-47.88-.37Zm63.02,.52h0Zm5.43,8.03h0c4.92-1.24,7.77,1.98,6.8,5.35,5.12-.04,6.01,2.67,4.01,7.89-3.82-5.93-5.99-2.89-7.42,.97h55.36c.12-4.03-3.86-7.6-7-1.88,.12-5.21,2.11-8.24,6.73-8.08-.17-8.04,3.72-5.66,6.8-5.41,.33-3.68,3.22-5.12,6.11-6.19l-12.15-.1c-3.03,12.29-11.65,11.94-20.22,11.51-1.42-.06-2.97-.19-4.4-.19-13.61,.02-20.9-5.27-23.69-11.73l-15.41-.17c4.03,2.31,6.22,4.79,4.48,8.03Zm10.93-7.87h0l48.32,.41-48.32-.41Zm245.48,27.49h0c-11.79,12.5-21.38,25.51-29.37,40.73-15.1,28.4-28.26,48.83-41.08,65.13,11.57-8.74,19.23-18.8,26.79-28.71,5.35-7.04,10.64-13.98,17.25-20.49,9.71-9.42,19.25-18.78,32.16-26.4,12.58-7.52,28.19-13.47,49.68-16.57-.37-3.41-5.33-2.83-11.46-2.25-4.4,.43-9.44,.85-13.57-.21-14.64-3.9-15.43-19.56-5.04-34.84-9.42,7.97-17.79,15.68-25.35,23.61Zm-245.66,31.48h0c-23.59-2.25-62.71-5-84.94,5.81-3.74,5.53-8.91,10.12-17.35,12.78-14.36-.31-28.09-.52-42.39-.72,2-22.22-29.19-16.79-29.06,.31,0,13.51,7.33,24,22.12,24.23,1.41,3.01,.75,6.28,7.02,8.51l7.46,13.18c.08,.27,.29,.43,.49,.56,.7,.27,1.47-.04,1.76-.62l3.74-8.43,4.67,10.27c.18,.27,.33,.49,.6,.64,.1,.06,.27,.08,.46,.08-15.7,.14-30.47-.08-43.03-1.38,2.17-2.81,4.36-5.62,6.53-8.41-12.81,3.16-25.64,2.79-38.46-5.29,8.08,11.94,19.15,22.41,33.01,31.52-.33-3.47-.72-7.06-1.07-10.56,12.23,.43,27.22,.43,43.03,.43l-3.99,7.93-3.51-6.82c-.43-.77-1.34-1.09-2.19-.68-.31,.12-.52,.39-.7,.7l-5.31,10.51c-.1,.25-.14,.47-.14,.74v.17c-3.74,.31-7.48,.64-11.13,1.07,1.53,9.92,9.73,16.13,25.01,14.63,13.96-3.92,29.15-6.94,54.97-5.68,9.23,15.78,20.68,13.96,27.51,5.43,1.92-2.36,5.08-1.47,8.61-.6,2.91,.72,5.97,1.44,8.72,.39,1.11-.39,3.24-4.26,2.87-4.94-.37-.58-.16-1.36,.41-1.65,.33-.19,.7-.23,1.04-.14,3.68,.89,6.65,1.32,8.67,1.09,1.34-.21,2.02-.8,1.86-1.96-.08-.7,.39-1.28,1.09-1.36h.14c4.13-.23,7.93-.54,10.04-1.34,2.56-.91-1.65-2.01-.1-3.7,.1-.17,.41-.35,.6-.35l1.3-.35c3.72-1.07,7.52-2.17,9.58-3.59,1.22-.85,1.63-1.96,.58-3.39-.39-.58-.27-1.36,.33-1.73,.12-.1,.31-.23,.54-.23,1.03-.23,2.17-.35,3.26-.58,2.79-.52,5.62-.87,6.98-1.8,1.01-.64,1.09-1.76-.27-3.7-.45-.52-.23-1.34,.35-1.67,.04-.1,.1-.16,.23-.16,1.11-.33,2.23-.66,3.41-.95,2.29-.7,4.54-1.28,6.16-2.15,1.76-.85,2.73-2.11,1.59-4.13-.25-.54-.08-1.3,.52-1.67,.15-.02,.29-.1,.48-.1,3.66-.56,6.88-1.24,8.18-2.33,.89-.72,.46-1.96-2.29-4.09-.52-.39-.58-1.14-.12-1.71l.1-.1c1.05-1.03,1.53-2.08,1.43-3.1v-.06c-.23-1.03-1.12-2.08-2.64-3.28-.6-.39-.68-1.14-.33-1.67h.08c1.12-1.49,1.26-2.54,.77-3.3-.62-.91-2.01-1.76-3.62-2.54-.64-.29-.91-1.01-.58-1.65,.06-.29,.35-.43,.66-.5,2.62-1.26,3.2-2.27,2.77-3.2-.58-1.2-2.48-2.67-4.25-4.05-.87-.62-1.71-1.28-2.48-1.92-.6-.47-.62-1.22-.12-1.71,.02-.1,.12-.14,.25-.25,7.23-4.65,13.2-10.6,17.29-17.97,3.53-6.18,5.7-13.39,6.3-21.63-8.47,5.31-17.13,7.21-24.81,8.92-11.52,2.58-20.72,4.69-23.11,17.93-.1,.49-.56,.93-1.09,1.05-3.66,.52-7.4,1.22-11.26,2-13.45,2.64-28.12,5.54-43.96,.49-.6-.25-1.05-.91-.83-1.61,.25-.58,.91-.97,1.65-.76,15.02,4.98,38.69-.95,52.73-4.52,3-14.09,13.22-15.35,25.39-18.07,8.05-1.84,17.1-2.73,25.92-8.84,.15-.19,.39-.23,.68-.23l2.6-6.88c-20.84,11.07-43.61,12.74-59.39,25.45Zm52.61-11.26h0c.54-.39,1.36-.29,1.78,.27,.37,.52,.23,1.34-.27,1.67-3.99,2.95-7.87,5.76-12.87,8.78-4.75,3.06-10.41,6.16-17.87,9.75l-.75,.33-.1,.02,18.47-12.78-18.47,12.78c-1.78,.93-2.97,2.11-3.51,3.29-.27,.72-.39,1.45-.19,2.13,.04,.64,.48,1.26,1.03,1.78,.99,.91,2.67,1.53,5.02,1.57,.74,.09,1.32,.62,1.24,1.34,0,.66-.62,1.18-1.28,1.18-3.1-.12-5.23-1.03-6.71-2.29-.97-.87-1.63-1.94-1.88-3.14-.17-1.12-.08-2.33,.48-3.49,.7-1.76,2.29-3.39,4.65-4.54l.12-.08c7.79-3.61,13.55-6.86,18.45-9.89h.02c.29-.14,.62-.37,1.03-.62l11.61-8.04Zm-77.11,13.26h0c.62-.31,1.39,0,1.61,.6,.29,.64,0,1.36-.62,1.63-6.55,2.64-16.57,2.27-26.69,1.94-10.04-.37-20.12-.72-26.23,1.88-3.82,1.63-7.35,4.34-10.86,6.94-1.53,1.16-3.12,2.29-4.67,3.41,.14,.04,.33,.1,.52,.23,.54,.43,.58,1.2,.18,1.78-2.38,2.68-5.04,4.85-8.26,6.73-1.43,.85-3.02,1.63-4.65,2.33,2.89,.08,6.01,.25,9.25,.56,5.35,.37,10.97,1.18,16.03,2.29,.66,.19,1.11,.83,.95,1.53-.16,.58-.95,2.42-1.61,2.15-4.96-1.07-10.35-1.96-15.62-2.42-5.99-.43-11.9-.33-16.15-.06-.58,0-.83-1.69-.97-2.23-.25-.66-.39-2.31,.25-2.52,4.3-1.3,8.14-1.98,11.22-3.7,2.58-1.55,2.95-1.47,4.9-3.49-4.24,2.6-7.81,4.09-13.06,3.6-.72,0-.41-1.94-.41-2.58,.13-.7,.7-1.24,1.41-1.12,7.23,.5,13.16-3.92,19.17-8.4,3.64-2.79,7.27-5.54,11.4-7.27,6.59-2.83,16.94-2.46,27.27-2.11,3.47,.15,6.98,.27,10.33,.27,5.99,0,11.4-.41,15.33-1.96Zm-33.28,11.22h0c9.63,1.88,11.18,6.36,11.98,7.5-3.22,4.4-10,11.22-21.89,11.46-12.27,.23-19.98-4.71-24.93-7.87,1.84-2.46,4.31-7.19,11.36-9.96,.35,7.54,2.62,15.12,11.51,15.47h.45c6.73,0,12.1-5.85,11.52-16.61Zm-8.05,10.62h0c-1.2-.18-1.84-2.15-1.57-4.48,.27-2.29,1.57-4.03,2.64-3.88,1.16,.15,1.82,2.09,1.53,4.44-.33,2.21-1.41,3.92-2.54,3.92h-.06Zm-75.4,28.17h0c1.47,.25,3.12,.58,4.98,.81l3.49,.37-3.43,7.58-5.04-8.76Zm11.86,1.55h0l7.87,.7-3.78,8.14-4.09-8.84Zm10.85,1.04h0l7.39,.74-3.25,6.92-4.15-7.66Zm9.98,.99h0l6.34,.62-3.72,6.05-2.62-6.67Zm8.86,.85h0l5.62,.58c-.12,.08-.23,.1-.25,.25l-2.52,4.48-2.85-5.31Zm-24.46,9.44h0l4.13-8.78,4.71,8.49c.1,.23,.27,.39,.62,.53,.64,.31,1.32,0,1.65-.64l3.1-6.65,2.6,6.61c.06,.25,.27,.43,.52,.62,.64,.37,1.36,.17,1.73-.41l3.95-6.49,3.08,5.66c.12,.27,.25,.43,.47,.54,.64,.33,1.41,.12,1.78-.43l2.56-4.67,3.2,5.33c.1,.16,.21,.23,.29,.37-11.81,.27-23.88,.56-35.45,.64,.43-.02,.81-.25,1.06-.72Zm32.06-8.63h0l6.42,.62-3.16,4.79-3.26-5.41Zm9.05,.84h0l5.49,.58-2.99,3.74-2.5-4.32Zm8.49,.83h0l6.2,.6-3.45,3.8-2.75-4.4Zm9.26,.93h0l4.36,.41c-1.24,2.01-2.12,3.78-2.95,5.44-2.19,0-4.46-.04-6.79,0l5.39-5.85Zm-22.52,5.85h0l3.3-5.08,2.58,4.65c.12,.18,.25,.23,.37,.39l.29,.17-6.78,.06,.23-.18Zm8.1-.25h0l3.49-4.42,3,4.67-6.96,.06c.14-.06,.29-.18,.48-.31Zm-31.28,7.48h4.96l-2.6,5.21-2.36-5.21Zm8.2,0h6.34c-.1,.1-.21,.23-.21,.31l-2.81,5.12-3.33-5.43Zm-11.36,0h0l-4.3,6.77-3.37-6.77h7.66Zm20.3,.31h0c-.08-.08-.17-.21-.21-.29l5.14,.04-2.56,4.63-2.38-4.38Zm8.33-.21h0l4.83,.06-2.77,3.99-2.07-4.05Zm11.96,6.16h0c0-.21-.17-.47-.25-.56l-3.62-5.47c3.33,.08,6.53,.17,9.73,.29-1.47,2.75-2.99,4.69-5.52,6.26h-.33l-.02-.52Zm-5.52-2.85h0l2.44,3.72-5.45,.47,3.01-4.19Zm-44.62,.02h0l3.61,7.19v.17l-7.56,.56,3.95-7.91Zm16.42,6.2h0l3-6.09,3.51,5.7-6.55,.52,.04-.12Zm20.08-5.97h0l2.17,4.11v.08l-4.81,.43,2.64-4.63Zm-25.57,0h0l2.6,5.86c.08,.17,.12,.31,.27,.48l-7.15,.48,4.27-6.82Zm17.52,.72h0l2.31,4.19-4.83,.37,2.52-4.56Zm-39.12,.95h0l3.33,6.32-6.71,.58,3.39-6.9Zm505.27-70.71h0c-.79,5.56,10.02,5.02,9.5,.52-1.53-8.96-4.22-17.97-6.24-27.72-.64,9.52-1.71,18.59-3.26,27.2Zm-118.17-6.71h0c-12.6,7.52-22.14,16.73-31.73,26.13-6.51,6.32-11.65,13.24-16.98,20.16-8.08,10.59-16.26,21.27-29.15,30.63,2.95-.14,5.21,.6,6.55,2.29l.1,.1c1.3,1.77,1.53,4.48,.41,8.49l-.02,.25c-.35,.97-.62,2-1.06,3.06l2.19-2.17h.12c6.51-6.34,12.23-12.93,18.01-19.46,14.83-17.12,29.48-33.9,56.06-44.9,.18-.02,.27-.02,.31-.15,12.79-15.35,39.23-30.65,43.03-40.44-20.74,2.99-35.74,8.82-47.86,16.01Zm-211.73-4.05h0c4.28-2.71,7.91-5.35,11.61-8.04l-11.61,8.04Zm325.81,33.86h0c1.45,1.38,2.31,3.2,2.75,5.04,1.96-1.78,4.26-2.91,7.06-3.35,.43-.12,.79-.14,1.26-.14-.06-4.65-2.6-7-5.23-7-2.29,0-4.75,1.82-5.84,5.45Zm-163.78,41.27h0c-6.34,7.21-12.62,14.36-19.67,21.07,12.27,1.45,11.71,6.14,6.94,17.02l4.73-3.51c25.3-19.07,31.87-24.05,68.99-39.44-2.05-1.36-4.03-3.02-5.91-5.12-1.26-1.3-2.5-2.77-3.64-4.42-4.92-6.96-6.61-15.2-1.51-25.3,.48-.99,1.09-1.96,1.74-3.02-23.84,10.78-37.7,26.58-51.68,42.72Zm160.6-32.45h0c.87-.48,1.88-.83,2.95-1.03-.04-1.26-.41-2.52-1.07-3.57l-1.88,4.61Zm12.89-3.64h0c-2.07,.45-3.64,1.38-5,2.81,3.61,.76,6.01,2.79,7.79,5.66,.39-2.87,.85-5.7,1.1-8.61-.45,0-1.01-.04-1.61-.04-.76,0-1.63,.04-2.27,.19Zm-16.09,11.46h0c3.2,1.26,5.35,3.63,6.49,6.61,2.48-3.1,6.42-4.5,10.91-4.79-1.66-4.82-5.29-7.4-8.99-7.4-3.06,0-6.28,1.84-8.41,5.58Zm-6.18,12.81h0c.83,1.05,1.3,2.17,1.55,3.37,2.36-2.44,5.27-4.07,8.84-4.86-.47-3.12-2.75-7.39-5.7-8.3l-4.69,9.79Zm14.21-1.61h0c3.18,.68,5.72,2.73,7.42,5.47l2.15-11.57c-3.99,.27-8.49,2.32-9.56,6.1Zm-56.02-3.47h0c-9.27,8.3-21.75,15.99-33.05,16.32-4.42,.12-8.68-.76-12.66-2.77-38.32,15.93-44.7,20.68-70.19,39.87l-8.28,6.26-.23,.08v.06c4.73-3.2,9.77-6.24,15.12-9.21,13.49-7.37,28.88-13.98,45.07-19.89,6.96-2.52,14.48-5.04,21.85-7.48h.02c23.01-7.68,44.2-14.75,52.47-24.21-.5-.48-1.12-.89-1.9-1.22-.52-.08-1.05-.21-1.67-.21-2.13,0-4.79,1.03-6.55,2.4Zm-41.5,25.51h0l-.13,.08c-7.04,2.33-14.34,4.75-21.73,7.46-16.07,5.78-31.42,12.43-44.7,19.67-7,3.9-13.37,7.87-19.11,12.04l-.12,.23c3.82,.39,6.36,1.59,7.85,3.33,27.95-20.49,42.53-22.19,65.32-24.87,3.37-.39,7.02-.87,10.68-1.35,9.81-7.56,22.54-13.26,34.17-18.46,2.91-1.24,5.78-2.54,8.28-3.76,7.08-2.4,15.33-11.57,12.5-18.68-9.11,9.67-30.12,16.73-53,24.31Zm74.53-7.08h0c2.21-2.6,4.96-4.87,8.47-5.04,.81-2.83,.08-5.31-1.69-7.62-2.21,4.21-4.48,8.39-6.77,12.66Zm12.1-6.61h0c3.8,.54,6.71,2.79,8.82,6.09,2.27-1.71,5.04-3.45,7.81-3.9-1.28-4.98-4.27-7.23-7.52-7.23-2.99,0-6.34,1.82-9.11,5.04Zm-318.7-2.4h0c-.25,2.66-2.15,4.71-4.96,6.11-1.88,1.01-4.15,1.69-6.28,2.25,.25,2.31-.64,4.51-3.1,6.05-2.15,1.51-5.31,2.04-8.08,2.42-.25,2.13-1.53,3.88-3.53,5.29-2.08,1.47-5.04,2.48-7.77,3.3,.1,2.44-1.92,4.28-4.79,5.31-2.48,.85-5.64,1.22-8.49,1.36-.72,1.49-2,2.38-3.51,2.99l13.43,2.46c-.87,.89-1.86,1.66-2.93,2.32,.18,2.09,1.2,4.4,3.39,4.63,5.27,.54,8.22-1.53,10.41-4.94l11.73,2.21c1.65,1.36,3.64,2.11,5.74,1.44,.29-.08,.52-.12,.77-.25l4.96,.91c4.85-15.51,7.42-30.38,8.22-45.65-1.57,.81-3.41,1.38-5.2,1.78Zm306.81,12.1h0c2.87,1.22,5,2.95,6.24,5.17,1.76-4.52,5.37-7.42,11.11-7.83-1.45-2.05-4.13-3.39-6.73-3.62-.25-.02-.5-.02-.74-.02-4.27,0-7.62,2.85-9.87,6.3Zm23.96-1.65h0c1.63,.7,3.04,1.65,4.28,2.87,.13-1.8,.25-3.47,.45-5.27-1.49,.43-3.28,1.39-4.73,2.4Zm-15.51,12.38h0c5.58-.25,10.51,1.15,13.88,4.83,.64-3.28,2.19-6.11,5.43-7.89-1.24-4.82-4.94-7-8.8-7-5.1,0-10.39,3.7-10.51,10.06Zm-11.49,5.12h0c1.78-2.23,4.28-3.74,7.69-4.63-.79-3.18-2.98-6.98-6.03-8.26-1.24,4.05-1.61,8.53-1.65,12.89Zm28.61,3.72h0c1.53,.21,2.94,.66,4.28,1.24-.74-2.95-1.32-5.97-1.53-9.01-2.19,2-2.91,4.87-2.75,7.77Zm-27.97,2.87h0c5.52-.31,9.32,2.85,11.92,7.29,2.09-4.83,6.18-9.27,11.34-10.2-2.85-3.68-7.12-5.45-11.4-5.45-5.43,0-10.72,2.99-11.86,8.37Zm-193.51,3.14h0c-7.52,7.02-15.33,13.49-23.67,20.06-16.01,12.62-24.62,26.03-29.11,40.63-1.76,5.76-2.91,11.8-3.49,17.93,9.87-10.78,23.34-22.58,36.19-33.67,7.13-6.26,45.46-35.71,38.05-46.95-.62-.87-.99-1.2-2.19-1.45-1.36-.37-2.68-.52-3.97-.52-4.21,0-8.16,1.65-11.82,3.97Zm207.74,7.54h0c4.73,.45,8.41,2.38,11.45,5.81,3.08-3,7.13-4.32,11.3-3.82-1.22-2.93-2.25-5.91-3.2-8.94-2.02-1.96-4.69-3.22-7.6-3.33h-.41c-6.11,0-9.83,5.04-11.53,10.29Zm-98.92-8.76h0c-22.48,2.62-36.83,4.34-64.32,24.64,.37,1.14,.6,2.5,.49,3.99-.33,6.1-5,14.4-9.85,22.66l-1.15,2.05c13.55-6.8,29.25-7.42,43.87-7.89,12.91-.52,24.93-.93,33.63-5.72-2.87-2.15-4.92-4.65-6.4-7.27-2.37-4.62-2.75-9.83-1.32-15.22,.48-1.61,1.08-3.28,1.84-4.96,2.19-4.94,5.78-9.23,10.02-13.08l-6.8,.81Zm-287.68,8.24h0c1.84,5,5.74,9.19,11.53,9.79,6.86,.8,11.83-1.16,15.49-6.07-2.19-1.47-3.76-4.07-4.32-6.69-4.22,.23-8.86-2.23-11.88-5.5-2.46,4.57-5.58,8.26-10.82,8.47Zm372.29-6.59h0c.52,3.95,.74,7.89,1.22,11.83,2.23-2.5,5-4.3,8.37-4.79-1.1-2.79-2.83-5.56-5.7-6.63-.91-.37-1.76-.52-2.67-.52-.39,0-.76,.06-1.22,.1Zm-399.31,7.99h0c1.28,2.5,3.37,4.11,7.79,4.59,2.27,.25,4.5,.25,6.69-.64,2.77-1.14,5.04-3.92,6.51-6.53-2.33-1.01-4.61-2.66-6.61-4.52-4.11,5-9.13,8.61-14.38,7.11Zm65.75,2.75h0c-1.24,.39-2.52,.66-3.88,.85,1.51,3.47,3.59,6.77,6.9,8.88,1.01,.72,4.07,2.15,5.24,2.38,7.83,.72,10.85-6.05,12.85-12.54-5.62,1.05-10.35-2.29-13.2-6.69-1.92,3.03-4.52,5.72-7.91,7.12Zm-75.13,.06h0c.19,5.27-1.65,9.88-3.8,14.62,.52,.02,.93,.06,1.39,.06,5.2,.18,11.42-4.23,14.98-8.7-5.39-1.65-7.5-4.56-9.01-9.38-1.01,1.24-2.25,2.42-3.55,3.39Zm411.31,4.73h0c2.62,1.18,4.69,3.78,5.87,6.49,3.61-4.3,8.1-6.98,13.71-7.87-2.66-2.38-6.36-3.72-9.77-3.72-3.88,0-7.6,1.55-9.81,5.1Zm-391.35,2.31h0c.83,4.83,2.87,8.74,8.82,9.5,6.71,.89,11.13-2.09,14.48-6.88-4.94-1.8-8.22-4.73-10.58-9.11-3.33,4.09-7.13,6.45-12.73,6.49Zm418.06-3.33h0c4.21,1.01,7.87,3.14,10.53,6.36,.33-.72,.93-1.39,1.59-1.74l-2.71-6.16c-1.06-.45-2.17-.62-3.25-.62-2.25,0-4.4,.8-6.17,2.15Zm-386.87,7.25h0c2.64,5.45,7.67,10.86,13.63,12.04,3.06,.64,8.31-1.82,10.72-3.45,1.42-.95,2.77-2.13,3.74-3.51-6.15-2.42-9.89-6.53-12.47-12.33-4.13,4.79-9.01,7.09-15.62,7.25Zm368.51,2.83h0c5.72,1.61,9.25,5.16,12.25,10.08,3.74-5.44,8.28-8.7,14.91-9.88-2.13-3.39-5.33-6.05-9.52-7-1.16-.33-2.4-.45-3.51-.45-5.55,0-10.64,3.02-14.13,7.25Zm-8.1-.48h0c.85-.12,1.69-.21,2.5-.23-.68-1.82-1.67-3.53-3.16-4.65,.17,1.65,.41,3.22,.66,4.87Zm-404.27,3.97h0c-1.73,.87-4.65,2.27-7.23,2.68,.33,5.99,6.16,7.29,12.39,7.54,5.08,.23,9.05-2.91,11.82-6.75-5.25-1.8-7.48-5.12-8.78-9.96-2.38,2.58-5.2,4.75-8.2,6.49Zm209.46,.37h0c-5.97,5.66-12.83,11.69-20.04,17.91-13.16,11.53-27.12,23.59-37.02,34.64-.25,.37-.7,.43-1.1,.43-.39,4.86-.52,9.81-.47,14.92,4.96-2.81,10.06-5.39,15.22-8.16,16.3-8.32,33.28-17.02,49.08-32.24,2.11-1.9,3.88-3.88,5.47-5.78,4.13-5.14,6.86-9.52,8.49-13.18,.76-2,1.3-3.78,1.4-5.43,.35-2.19,0-3.97-.76-5.27-.64-1.24-1.88-2.08-3.51-2.37-.91-.25-1.86-.31-2.77-.31-6.22,0-12.35,3.84-14,4.85Zm-184.44,4.17h0c2.6,5.06,7.33,8.3,13.34,9.4,3.22,.6,7.02,0,9.9-1.39,1.59-.74,3.08-1.82,4.31-3.04-6.09-2.62-10.39-7.25-13.2-13.04-3.72,4.79-7.93,7.75-14.36,8.06Zm53.58-4.69h0c.21,1.82,.85,3.2,2.23,4.46,.62-1.88,1.32-3.76,1.96-5.6-1.34,.54-2.79,.99-4.19,1.14Zm348.64,8.82h0c6.96,1.49,10.74,5.12,12.83,11.61,3.04-2.5,6.77-4.46,10.66-5.24l-3.51-13.76c-.54-.37-1.08-.66-1.59-.91-1.26-.43-2.48-.66-3.74-.66-5.58,0-11.52,4.44-14.64,8.96Zm-21.36-8.53h-.21l1.61,14.71c3.3-3.91,7.5-6.42,12.72-7.21-2.31-3.33-5.39-6.32-9.56-7.27-1.07-.23-2.09-.35-3.1-.35-.48,0-.97,.08-1.47,.13Zm-344.96,10.51h0c2.87,5.31,7.54,9.19,13.05,11.88l4.98-13.12c-1.8-1.69-3.1-3.82-3.96-6.07-3.53,3.9-8.8,6.57-14.07,7.31Zm-76.9-2.93h0l-4.79,9.34c.75,3.12,1.45,3.88,5.17,4.31,3.12,.31,8.47-3.84,12.37-7.31-4.54-1.34-8-4.09-9.11-8.35-1.14,.87-2.4,1.59-3.64,2.01Zm20.86,7.64h0c.29,5.83,6.71,9.4,12.42,10.25,6.94,1.05,12.7-2.38,16.46-7.5-6.01-2-10.29-5.39-13.16-10.7-3.91,5.14-8.49,8.05-15.72,7.95Zm281.07,2.79h0c-14.09,.48-29.11,1.05-42.22,7.31,.95,.06,1.84,.31,2.54,.56,.19-.17,.33-.17,.58-.27,21.61-6.11,40.78-3.68,58.66-1.51,20.16,2.56,38.67,4.83,56.74-5.91-2.5-1.92-8.2-2.11-15.47-1.43-9.27,.81-11.28,1.2-19.85-2.6-1.92-.85-3.65-1.76-5.16-2.73-9.34,5.56-22.21,6.05-35.82,6.57Zm123.75,.6h0c6.03,.83,9.92,4.98,12.33,10.43,3.57-4.94,8.45-7.64,14.87-7.52-1.96-6.82-7.62-10-13.55-10-5.12,0-10.41,2.39-13.65,7.08Zm-367.87,.52h0c2.67,6.09,7.23,10.93,14.48,12.58,6.88,1.61,10.62-.48,14.77-4.98-6.73-3.28-11.36-7.33-14.77-13.78-4.05,4.01-8.82,6.07-14.48,6.18Zm34.27,26.97h0c27.16,23.53,53.44,39.7,4.98,74.14,6.59-3.14,14.21-6.09,23.03-8.67,11.48-5.76,20.49-12.38,23.8-20.55,12.12-30.59-35.01-32.16-43.26-73-3.82,9.71-5.95,19.27-8.55,28.09Zm-88.34-20.22h0c.99,1.49,2.4,2.7,4.23,3.37,.87,.33,1.8,.56,2.77,.76,2.25,.35,4.61,.27,6.88,.14,1.61-.14,5.12-.72,8.24-1.59-1.67-.79-3.2-1.67-4.42-2.68-2.71-2.09-4.61-4.73-5.45-7.73-3.59,3.14-7.99,6.48-12.25,7.73Zm456.79-3.43h0c3.06,1.65,5.21,4.38,6.59,7.56,.33-.27,.49-.58,.83-.76-.35-3.31-.74-6.67-1.34-10.04-2.02,.64-4.17,1.88-6.07,3.24Zm-139.37,4.13h0c-17.23-2.13-35.57-4.44-56.06,.91,1.63,1.43,2.33,3.35,2.52,5.68,0,.47,0,.99-.04,1.45,15.1-2.73,24.73,1.07,34.52,4.94,9.23,3.59,18.59,7.29,32.92,5.39,.52-.06,.91,.14,1.22,.54,12.79-3.92,25.12-.31,37.14-13.94,4.63-5.27,6.38-8.86,6.1-11.17-18.74,11.09-37.72,8.74-58.31,6.22Zm-284.39,4.13h0c3.04,5.64,9.11,8.96,15.72,9.5,5.37,.39,10.68-1.05,14.05-4.85-6.3-2.6-10.49-7.54-13.32-13.47-4.23,5.13-9.69,8.39-16.44,8.82Zm386.13-8.78h0c.31,4.48,.1,8.88-.49,13.22,3.33-3.1,7.5-4.67,12.54-4.32-2.17-5.12-5.37-8.9-11.22-8.9h-.83Zm-433.74,5.6h0c1.98-.5,3.95-1.43,5.72-2.44-1.14-.64-2.11-1.55-2.87-2.56-.95,1.65-1.92,3.35-2.85,5Zm450.91,4.48h0c5.64,2.29,9.32,5.76,10.28,10.97,3.45-4.05,8-5.97,13.66-4.05,.37-5.23-1.01-10.68-6.42-12.99-1.57-.74-3.24-1.03-5-1.03-5.02,0-10.02,2.87-12.52,7.11Zm-453.92,.89h0c-1.42,2.79-3.86,8.14-2.02,9.83,1.16,1.08,4.55,.54,5.97,.21,3.72-.91,7.62-2.87,10.7-4.92,1.71-1.22,3.33-2.62,4.87-4.09-2.91-1.18-5.21-3.1-6.73-5.8-3.72,2.77-7.93,4.71-12.79,4.77Zm249.69-1.8h0c-1.78-.48-5.27,1.32-7.6,2.6-14.62,12.93-30.12,20.88-44.99,28.51-5.52,2.85-10.97,5.62-16.34,8.7,.08,2.91,.17,5.82,.33,8.82,.04,2.39,.04,4.73-.08,6.92,5-1.73,10.41-3.28,15.99-4.83,16.98-4.57,59.47-20.12,62.2-43.03,.23-1.98-.12-3.55-1.01-4.69-.74-1.2-1.98-2.05-3.39-2.56-1.2-.31-2.32-.52-3.6-.52-.52,0-.99,.04-1.51,.08Zm-208.38,2.37h0c-2.62,.83-5.37,1.28-8.08,1.67-1.76,.21-3.39,.25-5.18,.25,3.06,7.33,8.16,15.93,16.47,17.02,6.65,.85,12.87-2.99,17.06-7.87-2.39-.58-4.71-1.32-7.04-2.6-4.15-2.36-7.02-5.93-8.98-10.06-1.39,.7-2.83,1.2-4.24,1.59Zm394.41,7.17h0c2.11,.64,4.23,1.82,5.7,3.06,2.17,1.94,3.41,4.46,3.86,7.04,4.34-3.6,9.56-4.86,15.68-3.6,.7-8.04-6.01-12.81-13.03-12.81-4.59,0-9.22,2.01-12.21,6.3Zm-346.68-3.47h0c1.86,3.14,4.4,5.76,7.33,8.05,1.14-3.64,2.29-7.21,3.55-10.82-3.22,1.88-6.9,2.87-10.89,2.77Zm192,0h0c-.25,1.38-.79,2.85-1.32,4.27-2.87,7.13-9.03,15.16-15.54,20.26h.33c4.52-.37,9.81-.25,15.74,.29,13.04,1.28,29.87,5.16,52.12,12.7-1.96-8.9,1.01-20.49,10.66-26.21l1.24-.62c-12.21,.62-20.78-2.71-29.23-6.05-7.21-2.83-14.38-5.66-23.86-5.66-3.12,0-6.47,.31-10.14,1.01Zm-260.31,2.73h0c-4.54,3.9-10.66,7-16.55,8.26-.41,.12-.74,.16-1.18,.16,2.71,5.56,7.48,12.25,13.1,12.79,8.99,.76,16.36,.37,22.99-4.86-.99-.43-1.9-.89-2.75-1.42-5.25-3.1-9.25-9.19-11.88-14.52-.37-.87-.78-1.76-1.11-2.68-.89,.83-1.74,1.57-2.62,2.27Zm48.87,5.52h0c1.82,5.45,5.41,10.14,11.28,11.83,4.17,1.18,9.65,.76,12.78-2.4,.43-1.65,.89-3.37,1.34-5.06-4.34-1.86-8.57-6.22-11.07-10.58-3.8,4.15-8.28,6.01-14.34,6.2Zm395.05,2.75h0c5.68,2.31,9.52,6.42,10.8,11.79,2.09-1.94,4.77-3.3,7.87-3.43,1.32-10.28-3.8-14.6-9.13-14.6-3.86,0-7.89,2.27-9.54,6.24Zm-34.41,6.34h0c3.47-1.73,7.29-2.33,11.34-1.42-.14-4.79-2.25-8.02-7.35-9.03-1.1,3.57-2.44,7.07-3.99,10.45Zm-443.86,1.49h0c3.78-2.02,6.98-5.37,9.56-8.7-.99-.49-1.86-1.2-2.58-1.92-2.27,3.51-4.63,7.11-6.98,10.62Zm71.7-1.7h0c-3.37,2.05-6.42,3.06-9.88,3.26,3.53,7.19,9.88,12.25,18.53,12.54,2.83,.1,5.82,0,8.32-.97,2.77-1.05,5.53-3.57,7.87-6.18-.62-.06-1.2-.17-1.76-.25-7.85-1.67-13.39-7.11-16.03-14.21-2.07,2.23-4.36,4.19-7.06,5.8Zm387.78,.54h0c4.26,2.52,7.09,5.99,8.72,10.8,.37,1.05,.7,2.19,.95,3.29,2.54-1.84,5.16-3.51,8.16-4.54,2.89-1.1,5.74-1.49,8.74-1.24,0-.33-.08-.6-.08-.89-.31-1.84-.93-3.82-2-5.31-2.99-4.38-8.39-6.8-13.65-6.8-4.15,0-8.2,1.49-10.83,4.69Zm-463.28,6.86h0c-.1,1.67,.29,3.37,1.32,4.85,2.97,4.23,9.46,5.2,14.33,4.83,5.1-.43,10.12-2.46,13.86-5.87-6.28-2.23-10.45-8.35-13.45-14.36-4.01,5-9.87,9.36-16.07,10.54Zm441.73,3.86h0c3.95,2.6,7.04,5.52,9.07,9.67,5.62-3.86,11.69-6.1,18.65-5.13-1.51-8.92-7.95-14.11-14.46-14.11-5.12,0-10.18,2.93-13.26,9.56Zm-333.78-3.84h0c-1.08,1.41-.25,3.04,.99,4.42,.58-2.58,1.08-5.1,1.53-7.7-.89,1.03-1.74,2.12-2.52,3.28Zm-70.09,4.79h0c2.4,9.23,9.05,18.03,19.66,18.4,3.47,.08,6.59-.35,9.81-1.43,4.03-1.38,8.9-5,12.15-8.78-9.01-1.73-14.69-7.19-18.65-15.16-6.45,5.76-14.21,7.15-22.97,6.96Zm456.24-2.15h0c2.4,1.01,4,2.67,5.08,4.57,.41-2.98,.8-5.91,1.09-8.96-2.79,.33-4.71,1.98-6.18,4.4Zm-202.35,2.81h0c.02,.49,.18,.95,.18,1.49,15.14-2.11,27.58,8.47,40.03,19.15,12.1,10.33,24.25,20.68,38.57,18.78,.27-.04,.66,0,.78,.16,1.78-.76,3.16-1.77,4.11-3.12,4.61-6.94-17-13.92-22.78-22.33-.74-1.07-1.44-2.33-1.96-3.72-22.97-7.87-40.2-11.77-53.25-13.12-2.75-.31-5.37-.48-7.87-.52,1.03,.85,1.78,1.96,2.19,3.22Zm-203.61,8.04h0c3.37,6.9,8.84,12.5,17.21,12.6,.62-5.83,1.42-11.71,2.5-17.45-1.39-1.35-2.33-2.83-3.1-4.61-4.69,5.49-8.59,9.13-16.61,9.46Zm-101.79,4.63h0c5.2-.52,10.7-3.1,14.68-6.32-2.64-1.76-4.46-4.52-5.39-7.62-3.47,4.21-6.46,9.25-9.29,13.94Zm488.67-8.22h0c5.84,2.68,9.48,8.59,9.65,14.81,3.84-2.81,6.03-3.47,12.08-4.44,1.07-4.65,1.32-10.91-3.04-13.9-1.69-1.18-3.49-1.61-5.47-1.61-4.54,0-9.58,2.54-13.22,5.14Zm-221.15-2.68h0c-19.48,10.99-34.23,14.09-38.82,15.31-5.89,1.59-11.51,3.14-16.87,5.14-.76,7.79-3.14,14.4-6.34,20.26,6.22-2.01,13.49-3.1,21.19-4.3,18.36-2.75,48.65-9.98,56.31-28.78,.8-1.98,1.03-3.74,.64-5.14-.33-1.32-1.16-2.38-2.32-3.1-2.08-1.16-4-1.55-5.74-1.55-3.49,0-6.28,1.55-8.05,2.15Zm182.48,5.35h0c-1.24,1.59-2.46,3.08-3.68,4.69,.45,.19,.93,.47,1.32,.83,3.89-2.79,8.24-4.65,12.89-4.21-1.65-2.77-3.95-5-6.61-6.88-1.18,2.01-2.87,4.13-3.92,5.58Zm-428.06,1.73h0c1.26,3.02,2.83,6.03,4.71,8.59,2.62,3.63,6.71,7.7,11.05,9.23,.87,.31,1.74,.81,2.64,.97,1.88,.35,3.86,.29,5.68,.1,6.28-.37,12.6-2.95,18.26-6.26-9.21-2.91-14.83-10.31-17.6-19.44-6.77,6.28-15.62,8.53-24.75,6.8Zm283.49-4.88h0v.43c10.7,1.41,14.01,7.87,17.95,15.72,3.39,6.63,7.35,14.4,17.35,20.55,.14,.04,.25,.23,.37,.39,4.81-.08,9.89,.12,14.91,.27,6.76,.33,13.35,.53,18.94,.23-11.28-2.27-21.09-10.68-30.98-19.07-11.07-9.44-22.04-18.82-34.68-18.82-1.2,0-2.42,.06-3.86,.29Zm161.45,6.8h0c5.37,3.88,7.71,10.72,8.29,17.19,5.62-3.43,12.89-6.32,19.35-6.63,.48-4.21-.58-8.39-3.88-11.49-2.81-2.58-6.34-3.61-9.87-3.61-4.86,0-9.88,1.94-13.88,4.54Zm-175.68,12.64h0c-.54,.31-1.07,.64-1.71,1.08-2.62,1.61-5.6,3.26-9.19,5.45,2.33,.87,4.09,1.98,5.45,3.34,1.65,1.57,2.52,3.43,2.64,5.43,.12,2-.52,4.09-1.94,6.18-1.9,2.71-5.24,5.56-10.04,7.97-8.04,4.09-14.85,6.36-22.99,8.9,13.51,3.14,28.96,8.37,42.82,12.85h.04c13.57,4.56,25.59,8.61,32.55,9.71-7.17-11.24-33.57-31.89-4.28-41.21,3.57-1.15,7.81-1.77,12.48-1.96-8.82-6.24-12.62-13.51-15.86-19.95-3.66-7.25-6.76-13.28-16.53-14.42-3.04,8.59-6.71,12.27-13.45,16.63Zm-294.25-5.66h0c-2.38,3.9-3.62,9.15,1.76,11.32,3.14,1.28,6.03,2.52,9.42,3.37,8.66,2.09,17.35,1.3,25.32-2.02-8.4-4.31-13.24-12.1-16.87-20.65-5.27,5.06-12,7.99-19.62,7.99Zm77.58,5.08h0c7.5,22.1,41.97,26.11,44.14,2.66-10.54-.48-16.65-6.47-21.27-14.98-5.87,7.23-13.34,11.71-22.87,12.31Zm374.99-7.29h0c1.9,4.9,1.78,9.42-.1,13.98,7.75-2.15,14.07-3.14,22.17-.93-.64-5.91-2.83-13.3-8.45-16.07-1.2-.66-2.46-.84-3.8-.84-3.45,0-7.04,1.94-9.81,3.86Zm-12.47,8.03h0c3.3,1.32,6.14,3.22,8.63,5.83,.6-1.28,1.01-2.64,1.26-3.95,.45-2.21,.8-10.14-2.77-10.74-2.37,3.04-4.75,5.87-7.12,8.86Zm64.08-1.14h0c2.15,1.22,3.8,2.81,4.85,4.63,.95-2.54,1.76-5.02,2.42-7.66-2.62,.62-5.08,1.67-7.27,3.03Zm-457.43,10.56h0c4.36,10.72,11.61,21.69,24.74,21.52,8.1-.14,16.84-4.57,24.09-9.17-11.28-2.87-19.5-9.83-23.07-20.86-7.89,4.83-16.42,8.63-25.76,8.51Zm433.3-2.03h0c4.61,3.01,8,7.74,9.17,12.95,4.52-2.85,9.4-3.62,14.96-2.85,3.18-6.69,3.68-14.4-5.39-16.34-.62-.1-1.32-.21-1.96-.21-5.25,0-12.04,3.6-16.78,6.45Zm-491.37,3.57h0c2.23-1.34,4.54-2.63,6.8-3.66-.99-1.03-1.69-2.11-2.07-3.24-1.63,2.29-3.18,4.58-4.73,6.9Zm439.57,6.4h0c-2.02,8.78-8.12,16.15-15.04,22,14.79,3.65,25.16,11.52,32.26,25.28,7.87-8.04,11.76-19.11,11.09-30.28-.52-10.72-5.33-22.25-14.79-28.42-1.03-.68-2.09-1.28-3.24-1.88l-10.29,13.3Zm-409.01-2.13h0c-5.37-.14-10.23-1.45-15.1-3.3,3.1,13.8,11.88,28.51,25.99,32.93,6.86,2.25,16.11,1.34,22.89-.87,5.08-1.65,10.14-4.31,13.76-8.35-13.41-2.23-20.66-13.3-25.37-25.26-6.82,3.41-14.31,5.04-22.16,4.85Zm-42.29,13.7h0c-1.38,5.35,2.79,11.88,5.83,16.21,14.48,10.27,27.02,9.93,41.33,2.89-5.21-2.58-9.85-6.59-13.37-10.59-6.32-7.42-10.24-16.34-12.08-25.65-7.75,3.9-20,10.27-21.71,17.14Zm484.8,3.24h0c4.96,.72,9.96,.46,14.48-1.96,2.73-1.51,4.98-3.63,7.13-5.87-2.77-1.59-5.55-3.74-8.05-5.14-6.05-3.45-12.99-5.5-19.91-6.84,3.72,5.89,5.78,13.14,6.36,19.81Zm-231.62-15.12h0c-8.64,1.32-16.75,2.52-23.24,5-.12,.08-.23,.1-.29,.1-3.1,4.81-6.84,9.11-10.82,13.01,35.92,1.34,59.32-4.82,69.8-11.53,2.89-1.88,4.67-3.6,5.31-5.12,.45-.95,.35-1.8-.29-2.52l-.02-.02c-2.28-2.27-6.59-3.1-11.59-3.1-10.04,0-23.11,3.3-28.86,4.17Zm-124.41,5.43h0c3.1,10.02,9.4,17.83,19.81,20.84-2.44-8.72-5.08-17.27-5.89-26.19-3.86,3.41-8.18,4.63-13.92,5.35Zm-30.53,13.28h0c2.36,5.72,6.65,11.44,11.8,14.67,12.72,7.99,25.8,4.9,37.57-2.23-11.69-3.86-20.2-12.31-23.86-23.76-7.79,4.96-16.26,9.96-25.51,11.32Zm398.98,.95h0c3.41,2.13,6.55,4.69,9.19,7.5,6.34,6.67,10.25,14.83,11.84,23.65,12.91,.08,23.84-3.82,30.14-15.04-11.42-9.88-23.73-18.22-36.75-25.96-4.01,4.89-8.84,8.3-14.42,9.85Zm-107.04,4.61h0c1.01,4.36,.45,2.19,1.53,6.53,14.13,4.05,22.52,12.12,27.29,22.87,10.33-7.87,11.92-19.52,2.83-35.8-11.11,0-21.61,.72-31.64,6.4Zm-410.29,20.68h0c8.08-3.35,14.95-7.89,20.96-14.4-3.37-3.39-5.14-7.89-5.84-12.56-6.03,7.95-11.15,17.93-15.12,26.96Zm493.15,5.47h0c6.4,3.06,12.73,6.98,16.86,12.7,2.81,3.86,4.15,7.73,4.98,12.15,32.37-5.62,16.05-49.43-9.69-54.86,.43,11.9-4.3,20.88-12.15,30.01Zm-258.1-27.51h0c-.37,0-.76-.1-1.03-.25-3.25,2.87-6.61,5.6-9.85,8.26-1.3,.95-2.44,1.9-3.45,2.79-2.27,1.82-4.34,3.72-6.22,5.47,10.85,2.99,21.71,3.76,31.54,3.02,.1,0,1.61-.1,2.52-.21,5.29-.5,10.29-1.34,14.67-2.58,7.19-2.77,16.71-7.09,19.73-11.05,.58-1.03,.62-1.98,.31-2.83v-.12c-.77-1.53-2.77-2.87-6.42-3.95-11.63,1.63-25.49,2.25-41.79,1.45Zm-157.63,10.8h0c5.6,13.53,15.2,27.24,31.98,26.11,3.2-.17,6.34-.91,9.34-1.88,6.55-2.25,12.77-5.99,18.14-10.22,1.06-.85,3.51-2.91,5.49-4.81-12.83-1.57-23.3-9.38-28.42-20.92-8.59,9.75-23.49,12.87-36.52,11.73Zm225.94-5.97h0c-.25,1.51-1.2,2.89-2.42,4.23-2.38,2.62-6.16,4.87-8.55,6.05-3,1.53-11.11,3.57-19.09,4.94-3.3,.66-6.65,1.12-9.58,1.36,6.49,2.91,15.37,9.07,26.89,21.03,8.49,8.82,16.9,17.58,26.92,20.66-2.19-2.17-4.75-4.21-6.8-5.83-12.95-10.39-21.24-28.44-4.48-38.81,25.08-15.43,39.04,9.34,61.47,9.96,7.95,.21,9.75-1.8,8.64-5.02-6.92-.7-19.85-5.02-34.62-9.96l-.12-.02c-12.48-4.17-26.32-8.72-38.83-11.94,.66,1.01,.87,2.23,.58,3.35Zm141.99,33.71h0c12.41,4.63,21.19,12.97,26.91,24.6,7.77-5.04,13.14-12.54,14.07-21.88,.85-8.65-2.21-17.08-8.01-23.67-6.49-7.4-15.39-11.73-24.99-13.68,1.07,11.59-2.29,24.5-7.97,34.62Zm-417.77-26.32h0c1.63,9.61,5.16,19.23,10.16,27.56,3.99,6.46,10.7,14.77,18.57,16.87,18.82,4.96,36.46,.21,47.61-14.6-1.16-.17-2.4-.35-3.68-.68-14.81-3.66-23.59-16.57-28.32-29.83-15.08,8.03-29.58,9.05-44.35,.68Zm-31.07,15.45h0c-4.46,10.02-8.64,20.22-10.24,31.15-.78,5.72,1.92,9.65,7.5,11.36,21.98,.91,38.27,.49,56.37-10.66-15.8-8.41-24.35-29.89-27.8-46.81-7.37,7.56-14.52,11.28-25.82,14.95Zm402.32,15.39h0c11.51,3.72,20.74,13.84,24.02,25.18,24.95-24.27,18.28-42.24-15.14-54.94,13.96,13.98,11.57,26.13-8.88,29.76Zm156.12-12.25h0c-4.01,1.28-7.66,1.73-11.51,1.96,13.39,11.86,16.77,27.74,10.91,45.36,.49,.29,.93,.52,1.49,.7,5.62,2.02,13.24-2.27,17.41-5.72,3.61-2.79,7.33-7.04,8.76-11.44,2.05-6.38,1.47-14.79,.21-21.27-1.67-8.3-5.12-16.36-10.16-23.36-3.97,6.36-9.48,11.28-17.1,13.78Zm-403.83-11.24h0c1.76,3.91,3.61,7.58,5.62,10.78l3.7-13.22c-3.08,1.16-6.11,1.78-9.32,2.44Zm97.93,1.92h0c1.61,3.06,3.86,8.22,6.84,15.58,12.14-1.57,23.15,8.05,33.77,17.62,10.51,9.65,20.6,19.33,30.8,17.6,3.2-.54,2.42-3.08,.04-6.07-3.84,.39-13.36-3.08-31.73-22.08-11.15-11.59-22.47-23.36-37.72-22.17-.76,.06-1.28-.14-1.38-.48h-.62Zm-113.51,10.85h0c-6.88,4.67-14.67,8.14-22.95,9.5,3.39,7.21,9.21,13.24,16.17,17.39,6.51,3.88,15.2,6.67,22.87,5.62,1.22-.14,2.36-.4,3.49-.83,3.37-1.26,2.11-4.05,3.74-8.35-.68-1.88-1.43-3.8-2.13-5.99-.54-2.13-1.03-4.34-1.34-6.63-5.87-4.96-6.43-12.78-9.01-19.89-3.28,3.45-7.25,6.67-10.84,9.17Zm452.87,15h0c.23,3.72,.39,8.92-.43,13.12,5.87,1.2,13.45,3.12,19.19,6.49-4.96-13.57-12.91-25.57-22.29-36.71,1.8,5.56,2.95,11.46,3.53,17.1Zm-98.26,1.22h0c-2.37,6.86-6.57,13.05-12.35,17.41,5.68,1.82,10.49,4.9,13.3,10.62,.64,1.39,1.18,2.87,1.57,4.17,3.55,.29,6.96-.48,9.89-2.52,7.68-5.45,9.17-16.73,7.25-25.02-2.17-9.77-8.59-17.21-17.99-20.45,.85,5.27-.29,11.44-1.67,15.78Zm-161.41-13.94h0c-2.15,.89-6.94,4.26-1.41,8.55,.17,.06,12.04,13.49,13.41,13.78,5.99,1.59,9.11-18.4,6.16-18.82-5.49-.81-11.44-3.91-15.82-3.91-.83,0-1.57,.12-2.33,.39Zm187.89,22.43h0c5,9.42,10.99,24.5,8.7,34.66,4.92-.25,9.67-1.82,13.82-4.73,8.14-5.74,12.58-15.55,12.54-25.18,0-10.51-5.21-19.5-13.08-26.3-1.46,12.29-9.65,18.65-21.98,21.54Zm-169.53,2.02h0c12.02-.14,18.9,5.76,25.16,12.35,1.98-5.99,10.33-13.32,4.09-25.63-7.64,.7-17.99-1.43-26.11-7.13,3.64,5.48,2.02,14.97-3.14,20.41Zm95.37-9.96h0c-2.05,8.12-9.88,16.32-16.15,22.83,4.21,1.26,8.28,3.04,12.08,4.96,5.91,3.01,18.16,10.39,20.12,18.28,.64-.35,1.36-.75,2.02-1.24,7.75-5.79,9.77-16.3,7.54-25.06-3.06-12.23-13.32-20.61-24.79-25.47-.1,1.94-.37,3.84-.83,5.7Zm-62.15,29.31h0c11.36,3.12,23.92,11.69,25.8,23.41,3.47-1.14,6.28-4.61,7.93-7.46,3.24-5.72,4.44-12.93,3.84-19.39-1.9-19.29-17.8-28.49-35.71-31.11,2.42,9.36-.21,25.74-1.86,34.56Zm-320.03-15.95h0c8.39,15.29,18.51,26.75,38.13,27.49,17.53,.66,36.46-8.16,49.86-19.64-9.54,.02-19.71-4.36-26.83-9.67-5.5-4.01-10.41-9.32-13.32-15.39-11.57,14.56-29.33,19.5-47.84,17.21Zm204.83-1.22h0c.89,6.32,11.3,12.93,17.7,14.6,1.8,.46,5.1-3.74,5.1-4.19,.1-.31-17.27-12.41-18.8-12.93-.58-.21-1.24-.33-1.8-.33-1.45,0-2.54,.66-2.21,2.85Zm-267.29,14.27h0l4.48,8.32c7.97,14.89,23.3,35.18,42.2,36.71,16.65,1.32,34.02-10.12,45.28-21.01,1.53-1.55,3.04-3.1,4.48-4.67-11.26-1.3-20.84-6.09-28.47-14.83-3.12-3.6-5.64-7.48-7.91-11.57-.97-1.7-1.97-3.72-3.02-5.6-16.61,11.59-37.06,13.18-57.05,12.64Zm159.86-7.04h0c-14.05,14.48-30.88,23.67-50.69,26.15,13.72,8.96,33.21,16.01,48.23,8.41,1.05-.49,1.96-1.01,2.83-1.65,6.14-4.13,9.88-10.5,11.07-17.6,1.24-7.62-2.01-13.3-5.27-20.22-1.76,2.5-2.79,3.12-6.18,4.92Zm41.75-2.09h0c7.89,5.93,8.41,11.44,8.49,21.42,7.54-11.24,9.44-13.63,7.87-16.86-1.94-4.01-7-5.79-11.22-5.79-2.05,0-3.95,.41-5.14,1.22Zm303.05,18.07h0c2.17,2.5,3.25,5.49,3,8.99,4.87,1.42,9.4,1.22,14.02-1.07,1.38-3.26,.75-8.8,.25-11.94-.83-5.08-2.54-10.27-4.63-15.02-1.07,8.32-4.44,15.88-12.64,19.04Zm97.31,3.6h0c.66,9.19-2.07,18.84-8.59,25.65-1.09,1.05-2.19,2.11-3.47,2.93,1.65,1.16,3.2,2.36,4.88,3.41,8.76,5.37,14.97,3.57,21.61-3.45,.1-4.05,.33-8.12,.23-12.14-.08-8.82-1.57-16.84-3.82-25.3-1.55-5.91-10.91-10.6-18.73-12.62,4.69,6.24,7.46,13.74,7.91,21.53Zm-29.95-6.26h0c-4.61,2.38-9.98,3.26-14.89,1.82,1.74,11.17,1.03,25.28-7.31,32.76,15.99,4.44,34.91,3.9,43.71-12.07,6.82-12.35,3.39-27.74-6.09-37.64-3.78,6.1-8.88,11.96-15.41,15.12Zm-221.93,3.08h0c-1.8,1.82-4.15,3-6.55,3.95,12.27,7.44,20.99,16.44,22.37,31.38,3.04-1.2,5.95-4.09,7.72-6.3,3.66-4.57,6.18-10.35,6.77-16.01,1.88-16.67-11.86-24.95-26.42-28.52,.68,5.55,.29,11.46-3.9,15.51Zm122.53,6.2h0c7.5,.06,13.47,.49,17.33-8.16-1.88-6.86-7-10.59-13.7-12.58,.48,6.71-.18,14.83-3.63,20.74Zm-276.98-2.44h0c-6.76,2.5-14.25-2.54-18.78-5.72-.12,1.16-.33,2.25-.62,3.22-2.17,8.28-5.25,13.88-11.83,18.65,4.87,4.42,11.48,6.51,18.16,6.03,8.82-.75,19.93-6.01,21.3-15.27,1.55-11.38,2.05-19.58-3.72-24.6,2.48,12.56-.66,16.19-4.5,17.68Zm13.49,8.35h0c-.25,14.17-3.35,28.2-10.47,40.67-1.92,3.35-4.3,6.53-6.82,9.5,29.79-11.16,43.3-27.23,41.99-61.19-6.51-4.75-9.34-7.33-11.71-10.78-.76,6.22-7.62,16.86-12.99,21.79Zm214.12-5.02h0c-.64,2.91-1.51,5.82-3.18,8.32,2.15,.43,4.15,1.2,6.05,2.07,2.5,1.14,8.61,4.54,11.09,8.2,6.49-2.02,18.28-6.49,18.18-12.97-.08-6.34-10.99-12.85-16.05-15.45-4.19-2.08-9.01-4.17-13.67-5.56-.68,5.18-1.32,10.39-2.42,15.39Zm-433.76-10.54h0c-1.1,.37-2.56,.7-3.86,.62-.89,16.01,5.12,35.76,11.59,49.57,4.01,8.64,9.15,17.16,15.41,24.52,14.38-5.49,23.49-17.68,29.97-30.96-21.69-4.07-38.05-29.15-47.47-47.35-1.59,1.61-3.51,2.81-5.64,3.6Zm292.25,6.63h0c-3.43,2.83-7.52,5.39-12,6.65,9.11,11.46,11.96,36.66,12.58,51.21,16.26-10.6,38.63-27.84,30.86-49.41-2.85-7.99-13.57-16.71-22.58-18.32-2.6,3.86-5.93,7.52-8.86,9.88Zm102.66,16.32h0c-2.25,8.22-7.29,14.91-14.38,19.5,8.04,3.49,13.36,9.65,17.97,17.29,1.63-.6,3.24-1.42,4.77-2.5,9.62-6.67,12.87-20.22,11.03-31.03-2.07-11.61-9.27-20.02-20.26-23.4,2.52,6.38,2.71,13.65,.87,20.14Zm141.83-7.52h0c-.45,5.22-1.9,11.03-5.68,14.87,6.26,4.09,15.22,6.46,22.1,3.12,10.39-5.04,10.91-19.29,9.17-30.16-6.9,7.11-15.34,11.75-25.59,12.17Zm-290.45,18.65h0c12.06-2.13,20.65-8.08,24.81-19.37-8.24,.45-15.26-2.44-21.36-7.5,.1,9.25-.89,17.84-3.45,26.87Zm82.67-6.98h0c9.73-.89,14.89-4.94,17.14-15.49-7.12,2.91-11.17,.29-16.48-1.07,2.95,6.79,2.94,10.12-.66,16.57Zm10.78,2.46h0c-2.27,1.84-4.81,3.39-7.66,4.57,8.7,8.38,16.36,21.5,18.84,32.84,9.52-3.3,17.29-10.08,19.81-19.98,1.69-6.8,.41-13.82-3.08-19.93-3.92-6.59-10.08-11.53-16.94-15.04-.8,6.71-6.01,13.59-10.97,17.54Zm-230.15-11.42h0c-11.65,12.08-30.49,25.8-48.71,26.17,8.78,19.81,34.6,32.51,55.71,33.75,14.62,.91,30.86-17.29,38.26-27.87,4.71-6.75,9.21-14.62,11.96-22.6-18.11,6.26-39.47-1.69-54.08-12.83-1.01,1.11-2.09,2.21-3.14,3.37Zm136.79,21.79h0c7.13,20.47,7.87,42.32-1.86,61.86,20.45-5.43,32.14-13.63,43.13-33.28,0-5.43-.33-11.03-.93-16.52-.99-7.81-4.21-26.69-10.43-35.18-4.05,11.49-17.45,22.45-29.91,23.12Zm274.59-22h0c.95,1.94,1.36,3.88,2.15,7.48,.75,.93,2.09,2.23,3.1,2.07,2.5-.41,4.3-7,4.71-8.99,.08-.49,.21-1.03,.31-1.55-3.41,1.07-6.8,1.45-10.27,.99Zm-101.48,7.37h0c1.45,8.96,1.45,18.88-3.08,26.96,12.91,.87,21.28-8.92,26.83-19.79-4.36-5.84-9.87-8.08-16.21-8.08-2.48,0-4.96,.35-7.54,.91Zm42.94,14.11h0c-.91,4.03,1.69,6.88,4.81,9.18,2.77-5.87,4.92-10,10.87-12.95-2.21-2.73-3.88-6.38-4.69-9.62-6.8,1.05-9.5,7.04-10.99,13.4Zm-290.22-11.51h0c-2.89,8.66-7.64,17.21-12.64,24.58-6.96,10.02-19.19,23.88-32.59,28.86,44.12,12.08,80.73-11.61,86.55-55.13-10.18,10.19-29.85,11.36-41.31,1.69Zm351.51,5.27h0c-.1,.95-.27,1.73-.35,2.66,.02,2.64,.95,5.06,2.6,7.09,3.1,3.82,8.33,5.97,13.24,5.14,5-.81,8.39-4.15,10.64-8.35-8.49,1.49-17.27-1.24-23.92-6.67-.72-.1-1.47-.19-2.21-.48v.6Zm-228.83,36.56h0c9.57,9.23,19.07,22.85,18.92,36.11,8.04-2.19,20.78-4.61,24.98-8.47,2.38-2.25,4.19-4.79,5.58-7.74,7.06-15.35-1.92-35.3-12.1-47.35-1.3-1.61-2.77-3.2-4.32-4.71-5.85,12.58-20.72,25.26-33.05,32.16Zm260.89-30.69h0c-3.99,8.92-8.2,14.09-17.84,14.44,4.75,7.02,11.63,12.25,20.01,14.54,8.35,2.25,17.66,1.51,24.89-3.22,9.3-5.97,11.98-15.91,10.87-26.03-13.55,5.02-23.96,4.83-37.93,.27Zm-84.63,13.44h0c1.78,4.55,5.2,9.09,9.34,12.35-1.36-7.81,.06-15.66,5.29-22.08-.79-.68-1.65-1.4-2.15-1.84-.52-.47-1.05-.97-1.53-1.45-5.74,2.36-8.68,7.52-10.95,13.01Zm42.92-10.2h0c-1.59,.56-3.35,1.05-5.1,1.51,3.26,4.96,5.8,10.37,4.87,15.95,5.95-1.3,11.36-3.34,15.27-7.87-5-2.5-9.23-6.57-10.64-11.75-1.34,.89-2.87,1.61-4.4,2.17Zm81.1,17.54h0l20.57,16.26c4.83-10.43,7.95-21.75,10.04-33.03-8.92,6.14-17.74,5.02-26.4-1.36,.41,6.38-.45,12.87-4.21,18.14Zm-154.94,6.73h0c1.09,5.76,3.55,10.41,8.51,13.2,1.39-10.89,5.83-20.22,14.62-27.04-1.09-.62-2.07-1.4-2.87-2.23-2.11-2.19-2.73-5.35-3.1-8.35-10.62,3.34-15.74,14.05-17.17,24.42Zm-240.29,5.87h0c0,19.39-7.87,42.8-23.57,55.98,28.05,.99,55.81-6.22,65.96-34.81,3.57-10.12,4.31-21.32,3.34-31.91-.49-5.58-1.63-12.27-3.51-18.12-9.13,14.87-25.49,23.41-42.22,28.86Zm292.95-27.29h0c2.93,7.13,8.49,11.75,15.8,14.69,2.04-5.35-1.47-10.74-5.21-15.08-3.59,.12-7.08,.25-10.59,.39Zm-135.03,24.44h0c5.68,1.9,11.94,4.77,13.88,8.97,7.75,.29,19.31-1.01,22.08-8.97,1.44-4.21-.49-8.8-3.02-12.29-3.57-4.79-8.99-8.59-14.48-11.34-1.55,11.17-8.39,18.86-18.47,23.63Zm-330.96,9.48h0c8.22,9.27,18.47,20.88,28.98,26.03,14.25,7.04,31.27,7.37,44.29-2.56,6.57-4.96,10.95-11.86,13.01-19.58-22.66-2.52-45.88-14.69-56.2-34.87-6.22,12.29-17.33,25.98-30.08,30.98Zm487.22,6.24h0c-4.3-6.16-7-12.97-6.9-20.53-6.28-3-13.18-7.11-17.06-12.77-.66-1.03-1.32-2.11-1.8-3.24-10.99,18.7,5.37,34.87,25.76,36.54Zm-1.55-20.06h0c.43,9.3,5.04,18.3,14.02,22.37,5.52,2.52,11.71,2.48,17.37,.31,6.73-2.5,12.31-7.54,16.51-13.2-11.76-2.77-20.84-9.36-27.41-19.23-5.06,5.52-13.06,8.18-20.49,9.75Zm-58.58,18.53h0c1.45,8.68,11.65,14.95,20.14,18.42-1.86-10.89,0-21.07,6.36-30.59-6.59-3.35-10.37-8.37-13.39-14.98-7.95,6.61-14.94,16.94-13.12,27.14Zm114.73-8.55h0c4.93,11.46,13.18,27.43,24.77,32.43,10.2-7.64,14.15-15.99,19.89-26.77l-21.56-17.08c-6.5,6.71-13.74,10.06-23.09,11.42Zm-158.17,8.86h0c-1.38,9.98,10.35,19.77,17.62,26.19,9.58-4.13,16.11-16.32,19.58-25.6-7.64-4.63-9.48-7.58-12.35-15.91-1.12-.18-2.36-.29-3.41-.29-9.5,0-20.08,6.59-21.44,15.6Zm-64.76,12.56h0c9.44-.93,16.67-7.17,21.15-15.51-.35-1.38-3.84-3.6-4.85-4.21-3.14-1.69-6.63-2.91-10.24-3.57,.91,9.26-.68,15.64-6.05,23.3Zm-92.01,8.05h0c3.49,4.87,6.06,11.88,4.63,17.62,11.86,1.32,24.11,.48,35.08-4.21,5.04-2.15,11.42-5.89,14.98-10.1,.8-2.68-1.49-10.16-2.48-12.52-3.12-8.14-8.53-15.53-14.85-21.92-7.62,14.85-20.99,26.09-37.35,31.13Zm-69.07-24.27h0c-5.35,2.93-10.72,5.37-16.65,7.06-16.52,4.65-33.63,1.84-49.6-3.39-4.03,16.38-17.85,27.2-34.76,29.72,10.04,14.23,20.24,20.2,39.19,23.34,42.82,7.15,70.89-23.2,71.65-62.26-3.24,1.78-6.51,3.74-9.83,5.51Zm297.45,29.02h0c5.82,10.1,17.53,13.55,28.69,14.06-4.38-9.05-6.59-18.42-.75-27.8,1.12-1.76,2.4-3.45,3.74-5.04-12-.64-21.89-6.16-29.97-14.77-4.98,10.33-7.66,23.28-1.71,33.55Zm58.17-14.89h0c1.78,9.23,8,17.33,15.82,22.6,4.28,3.02,14.83,8.22,20.03,4.85,4.61-3.08,9.11-6.96,13.24-10.82-12.35-7.46-19.89-19.52-25.22-32.53-5.91,7.91-13.8,15.12-23.88,15.91Zm-152.94-10.39h0c-.91,.1-4.61,.93-5.58,1.26-.29,1.41-1.4,10.29-1.63,10.7-.75,.04-2.79,0-5.1-.13-4.15-.08-9.27-.27-8.63,.58,5.76,8.18,22.66,20.24,30.49,27.06,4.65,3.95,18.9,14.01,20.88,16.03-4.52,3.61-39.76-10.64-44.5-14.36-8.38-6.55-19.33-11.88-24.74-21.46-4.55,8.98,9.38,27.64,26.73,45.69,12.99,13.51,22.62,11.01,26.23,27.64-4.11,.7-50.38-36.11-57.11-40.28-3.82-2.36-23.32-16.09-23.94-16.15-2.25,2.17,13.65,25.76,16.23,30.86,1.45,2.77,12.35,23.86,12.87,24.48-2.15,1.03-1.88,3.99-11.9-11.01-10.8-16.07-30.61-28.11-46.21-32.53,1.28,3.61,15.85,16.75,18.49,23.98,2.04,5.48,3.14,14.54,4.11,17.72-15.3-17.04-26.07-29.72-43.73-36.42l-15.76-2.71-11.28,4.81-108.49,4.32-10.19,5.37c4.15,21.94,2.21,42.49-.66,62.73-.76,11.07,3.64,15.95,8.78,19.83,.7-4.67,1.47-9.26,2.23-13.9,6.47,10.18,12.87,16.4,19.33,20.82,.75-3.78,2.01-7.35,7.15-9.62,13.72,27.14,31.13,30.53,49.2,30.49-7-8.26-9.63-15.66-7.74-22.49,10.28,9.13,22.82,11.79,37.57,8.03-5.33-6.67-10-16.82-13.84-32.04,11.71,11.48,22.45,14.11,32.59,12.85-11.59-17.48-15.1-29.91-14.89-40.18,8.78,5.91,17.64,14.01,26.5,10.74-9.11-14.15-11.11-29.35-9.96-44.89-.14-1.26-.37-2.52-.56-3.7,1.07-.13,2.13-.23,3.08-.27,37.97,15.9,38.81,31.85,47.06,47.74,2.66-.66,6.2,0,5.49-6.09,8.38,8.61,10.74,16.48,14.83,25.05,3.33-2.02,7.73-3.96,7.89-12.1,6.86,9.62,14.5,18.34,23.45,24.95,.21-5.48,2.83-10.93,.8-17.39,3.12,3.06,7.46,4.75,10.6,3.8,.52-4.09-1.71-7.33-1.2-11.36,23.67-.52,49.08-1.96,79.07,12.87-4.9-12.42-9.77-25.37-18.78-35.61,12.21,3.45,24.06,4.07,35.2-1.51-12.83-4.75-22.7-13.51-31.3-24.25,8.22-1.74,19.36-.75,23.14-5.75-24.81-10.74-43.32-32.99-60.69-43.54,4.17-2.02,11.55-5.6,15.78-7.68-13.34-1.78-18.86-8.55-26.33-13.12l-1.05,.12Zm-146.85,61.04h0s.25,.97,.31,1.3c1.18,12.97,.45,10.53,8.39,20.18,4.44,5.45,7.29,11.82,9.81,15.45-11.2-1.38-37.1-25.82-39.89-27.72-.12-.04-.12-.08-.16-.08,0,0,.04,0,.16,.08,5.04,2.62,8.78,3.76,11.57,3.76,5.93,0,7.79-5.16,9.81-12.97Zm-55.52,8.7h0c17.31,1.78,31.89,5.87,35.4,19.11-3.86-2.31-7.52-4.4-8.78-.66-.6,9.71,12.75,17.27,18.14,30.59-17.99-15.89-34.31-32-44.76-49.04Zm-43.81,19.89h0c2.5-5.18-1.76-12.68,.85-16.59,11.48,25.47,35.38,47.24,41.87,71.82-12.1-9.58-25.47-15.55-32.97-38.79-8.9,1.82-9.58,7.7-11.51,16.46-4.11-11.86-3.03-22.86,1.76-32.9Zm24.27-12.87h0c21.15,16.77,37.22,34.97,50.67,64.95-23.07-18.86-36.44-36.91-50.67-64.95Zm266.67-46.7h0c7.13,7.25,14.89,13.32,24.44,17.53,8.3-6.13,13.82-14.52,17.68-23.84-9.38-3.16-18.67-8.9-23.28-17.48-4.21,9.19-9.83,19.13-18.84,23.78Zm82.81-16.63h0c-3.12,6.2-3.04,13.3-.89,19.73,2.4,7.52,7.42,14.13,13.61,19.33,7.5-5.99,14.75-11.96,18.76-20.82-5.33-6.38-8.94-13.3-11.25-21.15-5.13-.21-10.47-1.84-15.19-3.63-2.02,1.8-3.78,4.03-5.04,6.55Zm-273.94,10.43h0c-7.5,11.38-21.4,19.25-35.51,22.99,16.9,1.8,37.39,1.49,47.28-8.37,1.38-1.43-.13-7.37-.68-9.01-.52-1.51-2.21-5.72-3.7-7.52-2.5,.64-4.89,1.34-7.39,1.9Zm220.75,26.3h0c8.14,4.11,18.32,8.18,27.06,9.32,3.99-6.46,9.05-11.65,15.33-15.45-10.68-1.55-20.7-6.34-26.3-15.35-3.74,7.97-9.23,15.84-16.09,21.48Zm72.94,4.05h0c13.2,.84,22.76-3.35,33.4-10.6-6.69-1.14-12.75-3.84-18.03-8.37-4.13,6.43-9.29,13.76-15.37,18.97Zm-39.81,6.05h0c11.77,1.47,22.62,.7,33.83-1.57-2.81-1.09-5.53-2.64-7.87-4.83-3.16-2.83-4.73-5.72-6.8-8.82-7.89,2.25-14.25,8.74-19.17,15.22Zm-55.75,132.35h0c-7.58-1.7-15.12-3.49-22.74-5.23,.21-14.19-2.54-30.98-21.77-26.83-.97,.23-1.86,.52-2.71,.81,.72,.21,1.49,.37,2.17,.58,1.43,.39,2.83,.83,4.42,1.28,.93,.27,1.55,1.2,1.51,2.13,0,10-1.32,15.7-3.26,18.98-2.44,3.84-5.6,4.63-8.94,4.59-.87,0-1.61-.43-2.01-1.14-.66-1.4-1.42-2.54-2.25-3.53-.27-.33-.5-.68-.72-.89,2.13,11.51,10.68,23.49,22.2,25.1,11.11,.68,21.21,3.08,30.22,7,.12-.31,.25-.58,.5-.79,2.6-2.54,4.79-4.44,6.88-6.05,3.14-2.64,6.09-5.14,9.87-9.75l.04-.04c.8-1.09,1.28-2.11,1.36-2.99,.19-1.01-.08-2.01-.56-3.08-.56-1.01-.1-2.29,.99-2.85,1.07-.52,2.5-.04,2.99,1.01,.93,1.76,1.28,3.57,1.03,5.35-.27,1.78-.99,3.47-2.27,5.14-.06,.04-.1,.14-.1,.14-4.19,5-7.21,7.54-10.5,10.24-1.98,1.7-4.11,3.49-6.63,5.95-.54,.58-1.49,.74-2.33,.41l-1.88,2.71c-21.88-3.12-39.49,4.07-34.04,19.13,.27,.8,.56,1.59,.95,2.35,.37-.76,.85-1.57,1.34-2.46,.75-1.15,1.47-2.31,2.27-3.51,.48-.79,1.55-1.11,2.46-.93,9.93,2.6,15.35,5.21,18.16,7.85,3.24,3.24,3.24,6.4,2.35,9.56-.18,.76-.89,1.34-1.63,1.55-2.37,.5-4.28,1.16-5.85,2.05-1.38,.83-2.42,1.86-3.1,2.98-.1,.23-.21,.33-.39,.49,15.84,10.27,35.84,9.34,33.4-19.93,8.08-9.92,16.26-11.96,24.5-13.74-.23-.73,.06-1.57,.66-2.07,.29-.23,.6-.45,.85-.68,3.51-3.12,5.64-6.69,5.64-10.85s-2.15-9.32-7.25-15.18c-.5-.64-.99-1.22-1.49-1.65-.74-.97-.74-2.28,.13-3.08,.95-.76,2.37-.72,3.22,.17,.52,.68,1.14,1.32,1.55,1.77,5.83,6.69,8.24,12.6,8.22,17.97,0,5.43-2.62,10.16-7.02,14.09-.35,.23-.7,.45-.97,.72-.6,.45-1.39,.64-2.02,.43-2.11,4.73-1.47,9.67,2.99,15.84,.52-1.32,1.24-2.98,1.9-4.63,.6-1.22,1.22-2.54,1.86-3.72,.39-.8,1.39-1.3,2.25-1.14,10.24,1.55,15.86,3.65,18.96,6.18,3.53,2.83,3.88,5.97,3.29,9.19-.17,.79-.75,1.51-1.53,1.7-2.27,.72-3.8,1.28-4.88,1.98-.87,.46-1.57,1.05-2.35,1.76,4-.33,8.76-1.45,14.83-3.66,11.3-4.38,15.95-19.31,5.86-42.96,2.13-7.19,5.89-14.21,21.28-20.1,.8-3.47,1.26-6.76,1.05-9.94-.7,.48-1.47,1.16-2.28,2.01-.91,1.05-1.77,2.44-2.6,4.07-.37,.75-1.16,1.16-1.92,1.16-1.65,.08-3.62-.41-5.45-1.38-1.8-.91-3.66-2.4-4.96-4.42-1.43-2-2.28-4.46-2.33-7.52-.06-3.26,.89-7.04,3.39-11.55,.25-.48,.52-.75,.99-.99-.87-.25-1.76-.43-2.73-.62-15.51-3.26-22.25,7.58-22.25,17.7-21.9,4.9-37.97-20.49-54.26-43.63-22.37-8.78-39.43-10.74-63.77-10.85l-3.12-.43c33.94,21.36,89.07,67.98,58.31,70.64Zm-303.21-38.42h0c-3.7-1.78-7.15-3.9-9.58-6.15-20.88,49.84-41.33,69.59-61.08,45.65,9.73-24.44,1.74-33.46-10.02-33.09,0,.37-.13,.68-.21,.97-3.8,9.31-7.17,14.25-10.31,16.52-3.68,2.75-6.96,2.35-9.95,1.2-.87-.37-1.39-1.12-1.43-1.86-.13-1.41-.33-2.6-.66-3.7-.19-.66-.43-1.41-.7-1.98-8.35,9.52-9.32,23.59,7.64,30.76,5.56,3.74,15.22,9.71,18.76,17.99,.23-.02,.48,0,.62,.06,5.87,1.16,12.85,.33,19.15-2.07,6.03-2.31,11.44-6.09,14.68-11.01,.68-.95,2.07-1.32,3.1-.64,1.01,.64,1.32,1.96,.68,2.99-3.78,5.62-10.02,10.02-16.83,12.68-7.13,2.68-15.04,3.61-21.67,2.23-1.07-.23-1.73-1.1-1.76-2.09l-18.38-.83c-1.86-9.75-6.84-13.98-15-12.74l.66,.41c.54,.25,1.14,.62,1.9,1.03,.8,.37,1.14,1.2,1.05,1.96-.19,2.02-.37,3.92-.83,5.6-1.2,5.6-3.49,9.52-6.11,11.98-2.83,2.73-6.11,3.8-8.9,3.55-.39,0-.75-.06-1.18-.08-.25-.1-.46-.23-.66-.35,.52,12.93,11.32,23.13,29.07,13.76,7.46,.54,15.99,2.89,23.3,1.7,0-.19,0-.33,.08-.33,.39-3.61,1.86-6.82,3.8-9.19,2.29-2.75,5.18-4.63,8.22-5.33,3.24-.83,6.49-.87,9.73-.41,2.83,.48,5.6,1.3,8.32,2.38,1.76-.72,3.2-1.69,4.51-2.83,1.57-1.41,2.89-2.95,4.13-4.81,.66-1.01,2.04-1.32,3.08-.64,1.08,.64,1.32,1.9,.7,2.93-1.49,2.09-3.12,4.09-4.9,5.66-1.96,1.67-4.11,3.08-6.73,4.01-.62,.25-1.14,.13-1.72-.08-2.66-.99-5.37-1.94-8.12-2.36-2.6-.39-5.29-.39-7.99,.29-2.02,.52-4.05,1.84-5.68,3.82-.27,.41-.58,.72-.76,1.14,.68-.54,1.53-.97,2.38-1.43,.64-.35,1.3-.35,1.92-.17,2.91,1.05,5.29,2.52,7.13,4.11,3.37,2.79,5.12,6.16,5.97,9.34,.87,3.3,.52,6.53-.39,8.8-.46,.99-.97,1.84-1.59,2.54-.58,.62-1.46,.87-2.17,.7-1.82-.48-3.49-.7-4.98-.7-1.06,0-2.09,.08-2.97,.39,6.3,4.17,14.85,4.03,23.88-6.82,13.78-14.81,29.77-18.55,46.12-20.04,11.82,8.7,19.81,6.71,25.28-.29-.76-.17-1.67-.17-2.58-.08-1.16,.08-2.5,.27-4.01,.58-.76,.17-1.67,0-2.17-.66-.68-.64-1.2-1.57-1.57-2.52-.91-2.38-1.15-5.52-.37-8.84,.84-3.2,2.7-6.57,5.99-9.4,1.84-1.57,4.23-2.95,7.07-4.01,.48-.18,1.01-.18,1.42-.06-8.22-10.86-17.25-.62-26.34,3.93-7.19-7.42-7.52-8.39-7.91-18.61l25.55-43.84c-.89-1.96-1.76-3.88-2.62-6.03-2.71,2.85-4.42,4.89-4.26,10.24-5.29-1.42-14.38-8.59-19.91-17.37-.52,4.71-.66,6.38-.89,11.53Zm-122.39,7.29h0c3.97-2.97,7.72-5.08,12.68-5.27,5.66-.23,12.56,2.11,22.54,8.74,.74-1.46,1.38-3.14,2.21-4.92,.08-.35,.14-.49,.37-.64-8.1-6.22-14.91-8.76-20.61-8.76-7.56,0-13.18,4.48-17.19,10.85Zm516.32-.8h0c.41,.64,.41,1.41,0,2.09-.91,1.65-1.51,3.14-2.05,4.63,11.22-2.54,18.22-2.4,23.34-.35,5.14,2,8.08,5.83,10.89,10.78-1.59-10.37-7.21-18.82-20.6-18.82-3.39,0-7.17,.54-11.59,1.67Zm-503.46-.17h0c-4.13,.17-7.5,2.25-11.11,5.21,8.12-2.25,13.84-1.47,17.1,2.35h.1c1.1-.54,2.42-.21,2.93,.83,.68,1.16,1.18,2.4,1.57,3.74,.16,.97,.47,1.96,.54,3.03,1.45,.27,2.94,.19,4.46-.97,1.47-1.09,2.99-2.95,4.75-5.91-8.98-5.97-14.99-8.28-19.75-8.28h-.6Zm334.8,19.83h0c2.44-4.15,5.23-7.48,9.75-9.36,5.31-2.25,12.7-2.56,24.47,.04,.08-1.3,.08-2.66,.1-4.23-.87-.17-1.73-.47-2.62-.68-1.26-.39-2.62-.66-3.82-.91-1.07-.19-1.8-1.07-1.8-2.07-2-.31-3.88-.43-5.62-.43-12.99,0-18.74,7.78-20.47,17.64Zm165.85-8.36h0v.31c.02,2.19,.62,3.84,1.57,5.25,.91,1.32,2.04,2.31,3.34,2.93,.72,.37,1.36,.64,2.02,.78,.7-1.4,1.57-2.6,2.5-3.6,1.24-1.4,2.54-2.5,4.03-3.34,1.03-.6,2.42-.29,3.02,.84,.04,.08,.08,.15,.12,.19,3.92-1.26,8.57,.04,14.05,3.7-2.27-3.7-4.55-6.57-8.24-8.05-1.98-.81-4.42-1.18-7.48-1.18-3.92,0-8.76,.62-14.94,2.17Zm-154.26,2.93h0c-3.74,1.59-6.11,4.69-8.39,8.76,6.32-4.75,11.55-6.13,15.99-4.27,.06-.1,.14-.35,.31-.5,.7-.89,2.13-1.18,3.1-.48,1.16,.87,2.23,1.92,3.24,3.18,.77,.87,1.44,1.82,2.05,2.99,1.45-.21,2.79-.85,3.8-2.48,.91-1.47,1.55-3.6,2.07-6.77-5.7-1.32-10.29-1.92-14-1.92-3.41,0-6.03,.48-8.16,1.49Zm189.4,7.73h0l.23,.31v-.48c-.08,.06-.23,.12-.23,.17Zm-576.91,38.22h0c3.29-4.65,7.15-8.43,12.89-9.48,5.7-.99,12.87,.76,22.87,7.39,.23-.49,.35-.97,.39-1.51,.31-1.11,.49-2.38,.7-3.68l-.6-.31c-.52-.31-1.14-.6-1.71-.87-1.06-.6-1.42-1.86-.91-2.94-5.64-2.62-10.58-3.76-14.73-3.76-10.02,0-15.86,6.51-18.9,15.14Zm13.65-5.18h0c-4.07,.68-7.13,3.6-9.77,7.23,9.88-4.36,16.5-2.64,19.95,5.23-.16,.47-.21,.97-.21,1.51,.48-.37,1.04-.48,1.66-.37,.18,.08,.33,.12,.49,.12,1.63,.17,3.68-.6,5.47-2.33,1.04-1.07,2.09-2.37,2.98-4.15-7.97-5.37-13.84-7.5-18.26-7.5-.83,0-1.57,.06-2.31,.27Zm173.49,2.75h0c-2.25,.85-4.09,1.96-5.58,3.1,11.9,4.63,16.98,10.47,18.71,16.24,1.7,5.72,0,11.11-1.57,15.04,8.35-9.83,9.93-22.29-9.19-34.52-.33-.52-.62-1.12-.91-1.63-.12,.81-.62,1.47-1.47,1.78Zm-188.63,7.27h0c.5-.29,.87-.48,1.34-.74h-.08c-.39-.27-.64-.58-.76-.97-.17,.56-.37,1.1-.5,1.71Zm178.37,3.18h0c-.62,2.33-.5,4.69,.14,6.24l.1,.25c1.13-.18,2.27-.35,3.24-.41,1.63-.08,3.08,0,4.4,.23,1.22,.25,2,1.34,1.76,2.48v.29c5.47,2.23,8.01,8.61,7.54,19.42,1.08-.89,2.05-1.78,2.95-2.67-.47,.06-.93,.06-1.4-.08-1.2-.45-1.76-1.74-1.26-2.83,1.38-3.45,3.04-8.12,1.63-12.76-1.36-4.82-6.01-9.77-17.21-13.94-.1,0-.21,0-.29-.04-.76,1.24-1.3,2.52-1.61,3.84Zm323.44,11.94h0c-.75,1.8-1.45,3.47-1.98,4.69-.35,1.05-1.61,1.63-2.79,1.24-5.68,14.56,1.28,22.89,11.9,27.33-4.75-3.86-7.21-8.9-7.62-14.77-.37-5.97,1.49-12.74,5.37-19.77-1.24-.27-2.52-.52-3.88-.77-.35,.62-.64,1.41-.99,2.05Zm-78.82,1.24h0c-.62,1.05-1.16,2.09-1.74,3.2-.54,1.01-1.76,1.49-2.85,1.01-7.11,15.53-.35,24.39,10.43,29.1-3.55-3.22-6.18-6.44-7-11.05l-.06-.04c-1.01-5.39,.68-12.41,6.36-23.07-1.14-.39-2.48-.74-3.88-1.2-.49,.78-.87,1.38-1.26,2.04Zm82.81,17h0c.29,4.85,2.4,9.05,6.46,12.13-2.83-6.63-2.87-11.67-.25-15.22-.17-.04-.21-.04-.31-.19-.87-.76-.93-2.15-.14-3.01,1.26-1.32,2.29-2.31,3.84-3.16,1.07-.66,2.5-1.26,4.4-1.92,.04-1.32-.41-2.71-1.84-3.91-1.49-1.16-3.65-2.17-6.9-3.16-3.84,6.67-5.7,13.01-5.27,18.45Zm-79.67,4.4h0v.1c.72,3.76,3.33,6.65,6.86,9.75-2.36-5.2-2.99-9.5-1.98-12.87-.02-.06-.14-.12-.14-.12-1.16-.62-1.59-1.96-.95-2.95,1.07-1.8,2.67-3.33,4.71-4.52,1.61-.97,3.53-1.69,5.74-2.29,.16-1.36-.12-2.77-1.51-4.11-1.28-1.24-3.35-2.52-6.49-3.74-5.52,9.96-7.09,16.19-6.24,20.76Zm-341.41-15.78h0c-1.28,.8-2.38,1.65-3.51,2.44-.39,.43-1.01,.7-1.74,.6-.54-.06-1.01-.37-1.38-.76-12.54,10.99-9.96,21.79-2.09,30.43-2.17-5.17-3.92-10.58-2.52-15.95,1.59-5.74,6.85-11.2,19.08-15.86-1.26-1.04-2.85-2.01-4.75-2.89-1.11,.72-2.13,1.32-3.1,2.01Zm10.23,4.58h0c-11.22,4.09-15.91,8.68-17.15,13.22-1.2,4.15,.37,8.74,2.27,13.16,.41-6.59,2.42-10.89,5.93-13.07-.02-.08-.06-.15-.06-.23-.49-1.1,.19-2.38,1.39-2.77,1.46-.52,3.26-.76,5.1-.76,1.43,0,2.91,.17,4.48,.45l.08-.25c.6-1.63,.85-3.82,.31-6.24-.35-1.24-.93-2.54-1.71-3.8-.14,.1-.39,.18-.64,.29Zm418.54,22.41h0c-.27,.29-.56,.58-.89,.7,.64,.25,1.36,.45,2.13,.66-.41-.66-.64-1.24-1.01-1.78-.04,.1-.12,.23-.23,.41Zm-434.15,8.14c-.17,.12-.52,.21-.87,.21,.49,.39,.97,.83,1.4,1.22v-1.69c-.14,.1-.31,.17-.53,.27Z"/></g></svg>